<?xml version="1.0" encoding="utf-8" standalone="no"?>
<!DOCTYPE svg PUBLIC "-//W3C//DTD SVG 1.1//EN"
  "http://www.w3.org/Graphics/SVG/1.1/DTD/svg11.dtd">
<svg xmlns:xlink="http://www.w3.org/1999/xlink" width="774.3745pt" height="466.545pt" viewBox="0 0 774.3745 466.545" xmlns="http://www.w3.org/2000/svg" version="1.1">
 <metadata>
  <rdf:RDF xmlns:dc="http://purl.org/dc/elements/1.1/" xmlns:cc="http://creativecommons.org/ns#" xmlns:rdf="http://www.w3.org/1999/02/22-rdf-syntax-ns#">
   <cc:Work>
    <dc:type rdf:resource="http://purl.org/dc/dcmitype/StillImage"/>
    <dc:date>2025-04-09T13:05:29.293452</dc:date>
    <dc:format>image/svg+xml</dc:format>
    <dc:creator>
     <cc:Agent>
      <dc:title>Matplotlib v3.9.2, https://matplotlib.org/</dc:title>
     </cc:Agent>
    </dc:creator>
   </cc:Work>
  </rdf:RDF>
 </metadata>
 <defs>
  <style type="text/css">*{stroke-linejoin: round; stroke-linecap: butt}</style>
 </defs>
 <g id="figure_1">
  <g id="patch_1">
   <path d="M 0 466.545 
L 774.3745 466.545 
L 774.3745 0 
L 0 0 
z
" style="fill: #ffffff"/>
  </g>
  <g id="axes_1">
   <g id="patch_2">
    <path d="M 119.1745 315.345 
L 767.1745 315.345 
L 767.1745 38.865 
L 119.1745 38.865 
z
" style="fill: #ffffff"/>
   </g>
   <g id="matplotlib.axis_1">
    <g id="xtick_1">
     <g id="line2d_1">
      <path d="M 148.629045 315.345 
L 148.629045 38.865 
" clip-path="url(#p4f08651c3c)" style="fill: none; stroke-dasharray: 2.96,1.28; stroke-dashoffset: 0; stroke: #b0b0b0; stroke-opacity: 0.7; stroke-width: 0.8"/>
     </g>
     <g id="line2d_2">
      <defs>
       <path id="med9a68ac85" d="M 0 0 
L 0 6 
" style="stroke: #000000; stroke-width: 2"/>
      </defs>
      <g>
       <use xlink:href="#med9a68ac85" x="148.629045" y="315.345" style="stroke: #000000; stroke-width: 2"/>
      </g>
     </g>
     <g id="text_1">
      <!-- 0 -->
      <g transform="translate(144.629045 335.955) scale(0.16 -0.16)">
       <defs>
        <path id="TimesNewRomanPSMT-30" d="M 231 2094 
Q 231 2819 450 3342 
Q 669 3866 1031 4122 
Q 1313 4325 1613 4325 
Q 2100 4325 2488 3828 
Q 2972 3213 2972 2159 
Q 2972 1422 2759 906 
Q 2547 391 2217 158 
Q 1888 -75 1581 -75 
Q 975 -75 572 641 
Q 231 1244 231 2094 
z
M 844 2016 
Q 844 1141 1059 588 
Q 1238 122 1591 122 
Q 1759 122 1940 273 
Q 2122 425 2216 781 
Q 2359 1319 2359 2297 
Q 2359 3022 2209 3506 
Q 2097 3866 1919 4016 
Q 1791 4119 1609 4119 
Q 1397 4119 1231 3928 
Q 1006 3669 925 3112 
Q 844 2556 844 2016 
z
" transform="scale(0.015625)"/>
       </defs>
       <use xlink:href="#TimesNewRomanPSMT-30"/>
      </g>
     </g>
    </g>
    <g id="xtick_2">
     <g id="line2d_3">
      <path d="M 222.265409 315.345 
L 222.265409 38.865 
" clip-path="url(#p4f08651c3c)" style="fill: none; stroke-dasharray: 2.96,1.28; stroke-dashoffset: 0; stroke: #b0b0b0; stroke-opacity: 0.7; stroke-width: 0.8"/>
     </g>
     <g id="line2d_4">
      <g>
       <use xlink:href="#med9a68ac85" x="222.265409" y="315.345" style="stroke: #000000; stroke-width: 2"/>
      </g>
     </g>
     <g id="text_2">
      <!-- 1 -->
      <g transform="translate(218.265409 335.955) scale(0.16 -0.16)">
       <defs>
        <path id="TimesNewRomanPSMT-31" d="M 750 3822 
L 1781 4325 
L 1884 4325 
L 1884 747 
Q 1884 391 1914 303 
Q 1944 216 2037 169 
Q 2131 122 2419 116 
L 2419 0 
L 825 0 
L 825 116 
Q 1125 122 1212 167 
Q 1300 213 1334 289 
Q 1369 366 1369 747 
L 1369 3034 
Q 1369 3497 1338 3628 
Q 1316 3728 1258 3775 
Q 1200 3822 1119 3822 
Q 1003 3822 797 3725 
L 750 3822 
z
" transform="scale(0.015625)"/>
       </defs>
       <use xlink:href="#TimesNewRomanPSMT-31"/>
      </g>
     </g>
    </g>
    <g id="xtick_3">
     <g id="line2d_5">
      <path d="M 295.901773 315.345 
L 295.901773 38.865 
" clip-path="url(#p4f08651c3c)" style="fill: none; stroke-dasharray: 2.96,1.28; stroke-dashoffset: 0; stroke: #b0b0b0; stroke-opacity: 0.7; stroke-width: 0.8"/>
     </g>
     <g id="line2d_6">
      <g>
       <use xlink:href="#med9a68ac85" x="295.901773" y="315.345" style="stroke: #000000; stroke-width: 2"/>
      </g>
     </g>
     <g id="text_3">
      <!-- 2 -->
      <g transform="translate(291.901773 335.955) scale(0.16 -0.16)">
       <defs>
        <path id="TimesNewRomanPSMT-32" d="M 2934 816 
L 2638 0 
L 138 0 
L 138 116 
Q 1241 1122 1691 1759 
Q 2141 2397 2141 2925 
Q 2141 3328 1894 3587 
Q 1647 3847 1303 3847 
Q 991 3847 742 3664 
Q 494 3481 375 3128 
L 259 3128 
Q 338 3706 661 4015 
Q 984 4325 1469 4325 
Q 1984 4325 2329 3994 
Q 2675 3663 2675 3213 
Q 2675 2891 2525 2569 
Q 2294 2063 1775 1497 
Q 997 647 803 472 
L 1909 472 
Q 2247 472 2383 497 
Q 2519 522 2628 598 
Q 2738 675 2819 816 
L 2934 816 
z
" transform="scale(0.015625)"/>
       </defs>
       <use xlink:href="#TimesNewRomanPSMT-32"/>
      </g>
     </g>
    </g>
    <g id="xtick_4">
     <g id="line2d_7">
      <path d="M 369.538136 315.345 
L 369.538136 38.865 
" clip-path="url(#p4f08651c3c)" style="fill: none; stroke-dasharray: 2.96,1.28; stroke-dashoffset: 0; stroke: #b0b0b0; stroke-opacity: 0.7; stroke-width: 0.8"/>
     </g>
     <g id="line2d_8">
      <g>
       <use xlink:href="#med9a68ac85" x="369.538136" y="315.345" style="stroke: #000000; stroke-width: 2"/>
      </g>
     </g>
     <g id="text_4">
      <!-- 3 -->
      <g transform="translate(365.538136 335.955) scale(0.16 -0.16)">
       <defs>
        <path id="TimesNewRomanPSMT-33" d="M 325 3431 
Q 506 3859 782 4092 
Q 1059 4325 1472 4325 
Q 1981 4325 2253 3994 
Q 2459 3747 2459 3466 
Q 2459 3003 1878 2509 
Q 2269 2356 2469 2072 
Q 2669 1788 2669 1403 
Q 2669 853 2319 450 
Q 1863 -75 997 -75 
Q 569 -75 414 31 
Q 259 138 259 259 
Q 259 350 332 419 
Q 406 488 509 488 
Q 588 488 669 463 
Q 722 447 909 348 
Q 1097 250 1169 231 
Q 1284 197 1416 197 
Q 1734 197 1970 444 
Q 2206 691 2206 1028 
Q 2206 1275 2097 1509 
Q 2016 1684 1919 1775 
Q 1784 1900 1550 2001 
Q 1316 2103 1072 2103 
L 972 2103 
L 972 2197 
Q 1219 2228 1467 2375 
Q 1716 2522 1828 2728 
Q 1941 2934 1941 3181 
Q 1941 3503 1739 3701 
Q 1538 3900 1238 3900 
Q 753 3900 428 3381 
L 325 3431 
z
" transform="scale(0.015625)"/>
       </defs>
       <use xlink:href="#TimesNewRomanPSMT-33"/>
      </g>
     </g>
    </g>
    <g id="xtick_5">
     <g id="line2d_9">
      <path d="M 443.1745 315.345 
L 443.1745 38.865 
" clip-path="url(#p4f08651c3c)" style="fill: none; stroke-dasharray: 2.96,1.28; stroke-dashoffset: 0; stroke: #b0b0b0; stroke-opacity: 0.7; stroke-width: 0.8"/>
     </g>
     <g id="line2d_10">
      <g>
       <use xlink:href="#med9a68ac85" x="443.1745" y="315.345" style="stroke: #000000; stroke-width: 2"/>
      </g>
     </g>
     <g id="text_5">
      <!-- 4 -->
      <g transform="translate(439.1745 335.955) scale(0.16 -0.16)">
       <defs>
        <path id="TimesNewRomanPSMT-34" d="M 2978 1563 
L 2978 1119 
L 2409 1119 
L 2409 0 
L 1894 0 
L 1894 1119 
L 100 1119 
L 100 1519 
L 2066 4325 
L 2409 4325 
L 2409 1563 
L 2978 1563 
z
M 1894 1563 
L 1894 3666 
L 406 1563 
L 1894 1563 
z
" transform="scale(0.015625)"/>
       </defs>
       <use xlink:href="#TimesNewRomanPSMT-34"/>
      </g>
     </g>
    </g>
    <g id="xtick_6">
     <g id="line2d_11">
      <path d="M 516.810864 315.345 
L 516.810864 38.865 
" clip-path="url(#p4f08651c3c)" style="fill: none; stroke-dasharray: 2.96,1.28; stroke-dashoffset: 0; stroke: #b0b0b0; stroke-opacity: 0.7; stroke-width: 0.8"/>
     </g>
     <g id="line2d_12">
      <g>
       <use xlink:href="#med9a68ac85" x="516.810864" y="315.345" style="stroke: #000000; stroke-width: 2"/>
      </g>
     </g>
     <g id="text_6">
      <!-- 5 -->
      <g transform="translate(512.810864 335.955) scale(0.16 -0.16)">
       <defs>
        <path id="TimesNewRomanPSMT-35" d="M 2778 4238 
L 2534 3706 
L 1259 3706 
L 981 3138 
Q 1809 3016 2294 2522 
Q 2709 2097 2709 1522 
Q 2709 1188 2573 903 
Q 2438 619 2231 419 
Q 2025 219 1772 97 
Q 1413 -75 1034 -75 
Q 653 -75 479 54 
Q 306 184 306 341 
Q 306 428 378 495 
Q 450 563 559 563 
Q 641 563 702 538 
Q 763 513 909 409 
Q 1144 247 1384 247 
Q 1750 247 2026 523 
Q 2303 800 2303 1197 
Q 2303 1581 2056 1914 
Q 1809 2247 1375 2428 
Q 1034 2569 447 2591 
L 1259 4238 
L 2778 4238 
z
" transform="scale(0.015625)"/>
       </defs>
       <use xlink:href="#TimesNewRomanPSMT-35"/>
      </g>
     </g>
    </g>
    <g id="xtick_7">
     <g id="line2d_13">
      <path d="M 590.447227 315.345 
L 590.447227 38.865 
" clip-path="url(#p4f08651c3c)" style="fill: none; stroke-dasharray: 2.96,1.28; stroke-dashoffset: 0; stroke: #b0b0b0; stroke-opacity: 0.7; stroke-width: 0.8"/>
     </g>
     <g id="line2d_14">
      <g>
       <use xlink:href="#med9a68ac85" x="590.447227" y="315.345" style="stroke: #000000; stroke-width: 2"/>
      </g>
     </g>
     <g id="text_7">
      <!-- 6 -->
      <g transform="translate(586.447227 335.955) scale(0.16 -0.16)">
       <defs>
        <path id="TimesNewRomanPSMT-36" d="M 2869 4325 
L 2869 4209 
Q 2456 4169 2195 4045 
Q 1934 3922 1679 3669 
Q 1425 3416 1258 3105 
Q 1091 2794 978 2366 
Q 1428 2675 1881 2675 
Q 2316 2675 2634 2325 
Q 2953 1975 2953 1425 
Q 2953 894 2631 456 
Q 2244 -75 1606 -75 
Q 1172 -75 869 213 
Q 275 772 275 1663 
Q 275 2231 503 2743 
Q 731 3256 1154 3653 
Q 1578 4050 1965 4187 
Q 2353 4325 2688 4325 
L 2869 4325 
z
M 925 2138 
Q 869 1716 869 1456 
Q 869 1156 980 804 
Q 1091 453 1309 247 
Q 1469 100 1697 100 
Q 1969 100 2183 356 
Q 2397 613 2397 1088 
Q 2397 1622 2184 2012 
Q 1972 2403 1581 2403 
Q 1463 2403 1327 2353 
Q 1191 2303 925 2138 
z
" transform="scale(0.015625)"/>
       </defs>
       <use xlink:href="#TimesNewRomanPSMT-36"/>
      </g>
     </g>
    </g>
    <g id="xtick_8">
     <g id="line2d_15">
      <path d="M 664.083591 315.345 
L 664.083591 38.865 
" clip-path="url(#p4f08651c3c)" style="fill: none; stroke-dasharray: 2.96,1.28; stroke-dashoffset: 0; stroke: #b0b0b0; stroke-opacity: 0.7; stroke-width: 0.8"/>
     </g>
     <g id="line2d_16">
      <g>
       <use xlink:href="#med9a68ac85" x="664.083591" y="315.345" style="stroke: #000000; stroke-width: 2"/>
      </g>
     </g>
     <g id="text_8">
      <!-- 7 -->
      <g transform="translate(660.083591 335.955) scale(0.16 -0.16)">
       <defs>
        <path id="TimesNewRomanPSMT-37" d="M 644 4238 
L 2916 4238 
L 2916 4119 
L 1503 -88 
L 1153 -88 
L 2419 3728 
L 1253 3728 
Q 900 3728 750 3644 
Q 488 3500 328 3200 
L 238 3234 
L 644 4238 
z
" transform="scale(0.015625)"/>
       </defs>
       <use xlink:href="#TimesNewRomanPSMT-37"/>
      </g>
     </g>
    </g>
    <g id="xtick_9">
     <g id="line2d_17">
      <path d="M 737.719955 315.345 
L 737.719955 38.865 
" clip-path="url(#p4f08651c3c)" style="fill: none; stroke-dasharray: 2.96,1.28; stroke-dashoffset: 0; stroke: #b0b0b0; stroke-opacity: 0.7; stroke-width: 0.8"/>
     </g>
     <g id="line2d_18">
      <g>
       <use xlink:href="#med9a68ac85" x="737.719955" y="315.345" style="stroke: #000000; stroke-width: 2"/>
      </g>
     </g>
     <g id="text_9">
      <!-- 8 -->
      <g transform="translate(733.719955 335.955) scale(0.16 -0.16)">
       <defs>
        <path id="TimesNewRomanPSMT-38" d="M 1228 2134 
Q 725 2547 579 2797 
Q 434 3047 434 3316 
Q 434 3728 753 4026 
Q 1072 4325 1600 4325 
Q 2113 4325 2425 4047 
Q 2738 3769 2738 3413 
Q 2738 3175 2569 2928 
Q 2400 2681 1866 2347 
Q 2416 1922 2594 1678 
Q 2831 1359 2831 1006 
Q 2831 559 2490 242 
Q 2150 -75 1597 -75 
Q 994 -75 656 303 
Q 388 606 388 966 
Q 388 1247 577 1523 
Q 766 1800 1228 2134 
z
M 1719 2469 
Q 2094 2806 2194 3001 
Q 2294 3197 2294 3444 
Q 2294 3772 2109 3958 
Q 1925 4144 1606 4144 
Q 1288 4144 1088 3959 
Q 888 3775 888 3528 
Q 888 3366 970 3203 
Q 1053 3041 1206 2894 
L 1719 2469 
z
M 1375 2016 
Q 1116 1797 991 1539 
Q 866 1281 866 981 
Q 866 578 1086 336 
Q 1306 94 1647 94 
Q 1984 94 2187 284 
Q 2391 475 2391 747 
Q 2391 972 2272 1150 
Q 2050 1481 1375 2016 
z
" transform="scale(0.015625)"/>
       </defs>
       <use xlink:href="#TimesNewRomanPSMT-38"/>
      </g>
     </g>
    </g>
    <g id="text_10">
     <!-- Time (ms) -->
     <g transform="translate(401.591688 357.265) scale(0.2 -0.2)">
      <defs>
       <path id="TimesNewRomanPSMT-54" d="M 3703 4238 
L 3750 3244 
L 3631 3244 
Q 3597 3506 3538 3619 
Q 3441 3800 3280 3886 
Q 3119 3972 2856 3972 
L 2259 3972 
L 2259 734 
Q 2259 344 2344 247 
Q 2463 116 2709 116 
L 2856 116 
L 2856 0 
L 1059 0 
L 1059 116 
L 1209 116 
Q 1478 116 1591 278 
Q 1659 378 1659 734 
L 1659 3972 
L 1150 3972 
Q 853 3972 728 3928 
Q 566 3869 450 3700 
Q 334 3531 313 3244 
L 194 3244 
L 244 4238 
L 3703 4238 
z
" transform="scale(0.015625)"/>
       <path id="TimesNewRomanPSMT-69" d="M 928 4444 
Q 1059 4444 1151 4351 
Q 1244 4259 1244 4128 
Q 1244 3997 1151 3903 
Q 1059 3809 928 3809 
Q 797 3809 703 3903 
Q 609 3997 609 4128 
Q 609 4259 701 4351 
Q 794 4444 928 4444 
z
M 1188 2947 
L 1188 647 
Q 1188 378 1227 289 
Q 1266 200 1342 156 
Q 1419 113 1622 113 
L 1622 0 
L 231 0 
L 231 113 
Q 441 113 512 153 
Q 584 194 626 287 
Q 669 381 669 647 
L 669 1750 
Q 669 2216 641 2353 
Q 619 2453 572 2492 
Q 525 2531 444 2531 
Q 356 2531 231 2484 
L 188 2597 
L 1050 2947 
L 1188 2947 
z
" transform="scale(0.015625)"/>
       <path id="TimesNewRomanPSMT-6d" d="M 1050 2338 
Q 1363 2650 1419 2697 
Q 1559 2816 1721 2881 
Q 1884 2947 2044 2947 
Q 2313 2947 2506 2790 
Q 2700 2634 2766 2338 
Q 3088 2713 3309 2830 
Q 3531 2947 3766 2947 
Q 3994 2947 4170 2830 
Q 4347 2713 4450 2447 
Q 4519 2266 4519 1878 
L 4519 647 
Q 4519 378 4559 278 
Q 4591 209 4675 161 
Q 4759 113 4950 113 
L 4950 0 
L 3538 0 
L 3538 113 
L 3597 113 
Q 3781 113 3884 184 
Q 3956 234 3988 344 
Q 4000 397 4000 647 
L 4000 1878 
Q 4000 2228 3916 2372 
Q 3794 2572 3525 2572 
Q 3359 2572 3192 2489 
Q 3025 2406 2788 2181 
L 2781 2147 
L 2788 2013 
L 2788 647 
Q 2788 353 2820 281 
Q 2853 209 2943 161 
Q 3034 113 3253 113 
L 3253 0 
L 1806 0 
L 1806 113 
Q 2044 113 2133 169 
Q 2222 225 2256 338 
Q 2272 391 2272 647 
L 2272 1878 
Q 2272 2228 2169 2381 
Q 2031 2581 1784 2581 
Q 1616 2581 1450 2491 
Q 1191 2353 1050 2181 
L 1050 647 
Q 1050 366 1089 281 
Q 1128 197 1204 155 
Q 1281 113 1516 113 
L 1516 0 
L 100 0 
L 100 113 
Q 297 113 375 155 
Q 453 197 493 289 
Q 534 381 534 647 
L 534 1741 
Q 534 2213 506 2350 
Q 484 2453 437 2492 
Q 391 2531 309 2531 
Q 222 2531 100 2484 
L 53 2597 
L 916 2947 
L 1050 2947 
L 1050 2338 
z
" transform="scale(0.015625)"/>
       <path id="TimesNewRomanPSMT-65" d="M 681 1784 
Q 678 1147 991 784 
Q 1303 422 1725 422 
Q 2006 422 2214 576 
Q 2422 731 2563 1106 
L 2659 1044 
Q 2594 616 2278 264 
Q 1963 -88 1488 -88 
Q 972 -88 605 314 
Q 238 716 238 1394 
Q 238 2128 614 2539 
Q 991 2950 1559 2950 
Q 2041 2950 2350 2633 
Q 2659 2316 2659 1784 
L 681 1784 
z
M 681 1966 
L 2006 1966 
Q 1991 2241 1941 2353 
Q 1863 2528 1708 2628 
Q 1553 2728 1384 2728 
Q 1125 2728 920 2526 
Q 716 2325 681 1966 
z
" transform="scale(0.015625)"/>
       <path id="TimesNewRomanPSMT-20" transform="scale(0.015625)"/>
       <path id="TimesNewRomanPSMT-28" d="M 1988 -1253 
L 1988 -1369 
Q 1516 -1131 1200 -813 
Q 750 -359 506 256 
Q 263 872 263 1534 
Q 263 2503 741 3301 
Q 1219 4100 1988 4444 
L 1988 4313 
Q 1603 4100 1356 3731 
Q 1109 3363 987 2797 
Q 866 2231 866 1616 
Q 866 947 969 400 
Q 1050 -31 1165 -292 
Q 1281 -553 1476 -793 
Q 1672 -1034 1988 -1253 
z
" transform="scale(0.015625)"/>
       <path id="TimesNewRomanPSMT-73" d="M 2050 2947 
L 2050 1972 
L 1947 1972 
Q 1828 2431 1642 2597 
Q 1456 2763 1169 2763 
Q 950 2763 815 2647 
Q 681 2531 681 2391 
Q 681 2216 781 2091 
Q 878 1963 1175 1819 
L 1631 1597 
Q 2266 1288 2266 781 
Q 2266 391 1970 151 
Q 1675 -88 1309 -88 
Q 1047 -88 709 6 
Q 606 38 541 38 
Q 469 38 428 -44 
L 325 -44 
L 325 978 
L 428 978 
Q 516 541 762 319 
Q 1009 97 1316 97 
Q 1531 97 1667 223 
Q 1803 350 1803 528 
Q 1803 744 1651 891 
Q 1500 1038 1047 1263 
Q 594 1488 453 1669 
Q 313 1847 313 2119 
Q 313 2472 555 2709 
Q 797 2947 1181 2947 
Q 1350 2947 1591 2875 
Q 1750 2828 1803 2828 
Q 1853 2828 1881 2850 
Q 1909 2872 1947 2947 
L 2050 2947 
z
" transform="scale(0.015625)"/>
       <path id="TimesNewRomanPSMT-29" d="M 144 4313 
L 144 4444 
Q 619 4209 934 3891 
Q 1381 3434 1625 2820 
Q 1869 2206 1869 1541 
Q 1869 572 1392 -226 
Q 916 -1025 144 -1369 
L 144 -1253 
Q 528 -1038 776 -670 
Q 1025 -303 1145 264 
Q 1266 831 1266 1447 
Q 1266 2113 1163 2663 
Q 1084 3094 967 3353 
Q 850 3613 656 3853 
Q 463 4094 144 4313 
z
" transform="scale(0.015625)"/>
      </defs>
      <use xlink:href="#TimesNewRomanPSMT-54"/>
      <use xlink:href="#TimesNewRomanPSMT-69" x="57.583984"/>
      <use xlink:href="#TimesNewRomanPSMT-6d" x="85.367188"/>
      <use xlink:href="#TimesNewRomanPSMT-65" x="163.150391"/>
      <use xlink:href="#TimesNewRomanPSMT-20" x="207.535156"/>
      <use xlink:href="#TimesNewRomanPSMT-28" x="232.535156"/>
      <use xlink:href="#TimesNewRomanPSMT-6d" x="265.835938"/>
      <use xlink:href="#TimesNewRomanPSMT-73" x="343.619141"/>
      <use xlink:href="#TimesNewRomanPSMT-29" x="382.535156"/>
     </g>
    </g>
   </g>
   <g id="matplotlib.axis_2">
    <g id="ytick_1">
     <g id="line2d_19">
      <path d="M 119.1745 311.279406 
L 767.1745 311.279406 
" clip-path="url(#p4f08651c3c)" style="fill: none; stroke-dasharray: 2.96,1.28; stroke-dashoffset: 0; stroke: #b0b0b0; stroke-opacity: 0.7; stroke-width: 0.8"/>
     </g>
     <g id="line2d_20">
      <defs>
       <path id="m52b29cbc92" d="M 0 0 
L -6 0 
" style="stroke: #000000; stroke-width: 2"/>
      </defs>
      <g>
       <use xlink:href="#m52b29cbc92" x="119.1745" y="311.279406" style="stroke: #000000; stroke-width: 2"/>
      </g>
     </g>
     <g id="text_11">
      <!-- −0.04 -->
      <g transform="translate(72.652 316.834406) scale(0.16 -0.16)">
       <defs>
        <path id="TimesNewRomanPSMT-2212" d="M 3484 2000 
L 116 2000 
L 116 2256 
L 3484 2256 
L 3484 2000 
z
" transform="scale(0.015625)"/>
        <path id="TimesNewRomanPSMT-2e" d="M 800 606 
Q 947 606 1047 504 
Q 1147 403 1147 259 
Q 1147 116 1045 14 
Q 944 -88 800 -88 
Q 656 -88 554 14 
Q 453 116 453 259 
Q 453 406 554 506 
Q 656 606 800 606 
z
" transform="scale(0.015625)"/>
       </defs>
       <use xlink:href="#TimesNewRomanPSMT-2212"/>
       <use xlink:href="#TimesNewRomanPSMT-30" x="56.396484"/>
       <use xlink:href="#TimesNewRomanPSMT-2e" x="106.396484"/>
       <use xlink:href="#TimesNewRomanPSMT-30" x="131.396484"/>
       <use xlink:href="#TimesNewRomanPSMT-34" x="181.396484"/>
      </g>
     </g>
    </g>
    <g id="ytick_2">
     <g id="line2d_21">
      <path d="M 119.1745 250.460939 
L 767.1745 250.460939 
" clip-path="url(#p4f08651c3c)" style="fill: none; stroke-dasharray: 2.96,1.28; stroke-dashoffset: 0; stroke: #b0b0b0; stroke-opacity: 0.7; stroke-width: 0.8"/>
     </g>
     <g id="line2d_22">
      <g>
       <use xlink:href="#m52b29cbc92" x="119.1745" y="250.460939" style="stroke: #000000; stroke-width: 2"/>
      </g>
     </g>
     <g id="text_12">
      <!-- −0.02 -->
      <g transform="translate(72.652 256.015939) scale(0.16 -0.16)">
       <use xlink:href="#TimesNewRomanPSMT-2212"/>
       <use xlink:href="#TimesNewRomanPSMT-30" x="56.396484"/>
       <use xlink:href="#TimesNewRomanPSMT-2e" x="106.396484"/>
       <use xlink:href="#TimesNewRomanPSMT-30" x="131.396484"/>
       <use xlink:href="#TimesNewRomanPSMT-32" x="181.396484"/>
      </g>
     </g>
    </g>
    <g id="ytick_3">
     <g id="line2d_23">
      <path d="M 119.1745 189.642472 
L 767.1745 189.642472 
" clip-path="url(#p4f08651c3c)" style="fill: none; stroke-dasharray: 2.96,1.28; stroke-dashoffset: 0; stroke: #b0b0b0; stroke-opacity: 0.7; stroke-width: 0.8"/>
     </g>
     <g id="line2d_24">
      <g>
       <use xlink:href="#m52b29cbc92" x="119.1745" y="189.642472" style="stroke: #000000; stroke-width: 2"/>
      </g>
     </g>
     <g id="text_13">
      <!-- 0.00 -->
      <g transform="translate(81.6745 195.197472) scale(0.16 -0.16)">
       <use xlink:href="#TimesNewRomanPSMT-30"/>
       <use xlink:href="#TimesNewRomanPSMT-2e" x="50"/>
       <use xlink:href="#TimesNewRomanPSMT-30" x="75"/>
       <use xlink:href="#TimesNewRomanPSMT-30" x="125"/>
      </g>
     </g>
    </g>
    <g id="ytick_4">
     <g id="line2d_25">
      <path d="M 119.1745 128.824006 
L 767.1745 128.824006 
" clip-path="url(#p4f08651c3c)" style="fill: none; stroke-dasharray: 2.96,1.28; stroke-dashoffset: 0; stroke: #b0b0b0; stroke-opacity: 0.7; stroke-width: 0.8"/>
     </g>
     <g id="line2d_26">
      <g>
       <use xlink:href="#m52b29cbc92" x="119.1745" y="128.824006" style="stroke: #000000; stroke-width: 2"/>
      </g>
     </g>
     <g id="text_14">
      <!-- 0.02 -->
      <g transform="translate(81.6745 134.379006) scale(0.16 -0.16)">
       <use xlink:href="#TimesNewRomanPSMT-30"/>
       <use xlink:href="#TimesNewRomanPSMT-2e" x="50"/>
       <use xlink:href="#TimesNewRomanPSMT-30" x="75"/>
       <use xlink:href="#TimesNewRomanPSMT-32" x="125"/>
      </g>
     </g>
    </g>
    <g id="ytick_5">
     <g id="line2d_27">
      <path d="M 119.1745 68.005539 
L 767.1745 68.005539 
" clip-path="url(#p4f08651c3c)" style="fill: none; stroke-dasharray: 2.96,1.28; stroke-dashoffset: 0; stroke: #b0b0b0; stroke-opacity: 0.7; stroke-width: 0.8"/>
     </g>
     <g id="line2d_28">
      <g>
       <use xlink:href="#m52b29cbc92" x="119.1745" y="68.005539" style="stroke: #000000; stroke-width: 2"/>
      </g>
     </g>
     <g id="text_15">
      <!-- 0.04 -->
      <g transform="translate(81.6745 73.560539) scale(0.16 -0.16)">
       <use xlink:href="#TimesNewRomanPSMT-30"/>
       <use xlink:href="#TimesNewRomanPSMT-2e" x="50"/>
       <use xlink:href="#TimesNewRomanPSMT-30" x="75"/>
       <use xlink:href="#TimesNewRomanPSMT-34" x="125"/>
      </g>
     </g>
    </g>
    <g id="text_16">
     <!-- Power (mV) -->
     <g transform="translate(64.373875 226.815937) rotate(-90) scale(0.2 -0.2)">
      <defs>
       <path id="TimesNewRomanPSMT-50" d="M 1313 1984 
L 1313 750 
Q 1313 350 1400 253 
Q 1519 116 1759 116 
L 1922 116 
L 1922 0 
L 106 0 
L 106 116 
L 266 116 
Q 534 116 650 291 
Q 713 388 713 750 
L 713 3488 
Q 713 3888 628 3984 
Q 506 4122 266 4122 
L 106 4122 
L 106 4238 
L 1659 4238 
Q 2228 4238 2556 4120 
Q 2884 4003 3109 3725 
Q 3334 3447 3334 3066 
Q 3334 2547 2992 2222 
Q 2650 1897 2025 1897 
Q 1872 1897 1694 1919 
Q 1516 1941 1313 1984 
z
M 1313 2163 
Q 1478 2131 1606 2115 
Q 1734 2100 1825 2100 
Q 2150 2100 2386 2351 
Q 2622 2603 2622 3003 
Q 2622 3278 2509 3514 
Q 2397 3750 2190 3867 
Q 1984 3984 1722 3984 
Q 1563 3984 1313 3925 
L 1313 2163 
z
" transform="scale(0.015625)"/>
       <path id="TimesNewRomanPSMT-6f" d="M 1600 2947 
Q 2250 2947 2644 2453 
Q 2978 2031 2978 1484 
Q 2978 1100 2793 706 
Q 2609 313 2286 112 
Q 1963 -88 1566 -88 
Q 919 -88 538 428 
Q 216 863 216 1403 
Q 216 1797 411 2186 
Q 606 2575 925 2761 
Q 1244 2947 1600 2947 
z
M 1503 2744 
Q 1338 2744 1170 2645 
Q 1003 2547 900 2300 
Q 797 2053 797 1666 
Q 797 1041 1045 587 
Q 1294 134 1700 134 
Q 2003 134 2200 384 
Q 2397 634 2397 1244 
Q 2397 2006 2069 2444 
Q 1847 2744 1503 2744 
z
" transform="scale(0.015625)"/>
       <path id="TimesNewRomanPSMT-77" d="M 41 2863 
L 1241 2863 
L 1241 2747 
Q 1075 2734 1023 2687 
Q 972 2641 972 2553 
Q 972 2456 1025 2319 
L 1638 672 
L 2253 2013 
L 2091 2434 
Q 2016 2622 1894 2694 
Q 1825 2738 1638 2747 
L 1638 2863 
L 3000 2863 
L 3000 2747 
Q 2775 2738 2681 2666 
Q 2619 2616 2619 2506 
Q 2619 2444 2644 2378 
L 3294 734 
L 3897 2319 
Q 3959 2488 3959 2588 
Q 3959 2647 3898 2694 
Q 3838 2741 3659 2747 
L 3659 2863 
L 4563 2863 
L 4563 2747 
Q 4291 2706 4163 2378 
L 3206 -88 
L 3078 -88 
L 2363 1741 
L 1528 -88 
L 1413 -88 
L 494 2319 
Q 403 2547 315 2626 
Q 228 2706 41 2747 
L 41 2863 
z
" transform="scale(0.015625)"/>
       <path id="TimesNewRomanPSMT-72" d="M 1038 2947 
L 1038 2303 
Q 1397 2947 1775 2947 
Q 1947 2947 2059 2842 
Q 2172 2738 2172 2600 
Q 2172 2478 2090 2393 
Q 2009 2309 1897 2309 
Q 1788 2309 1652 2417 
Q 1516 2525 1450 2525 
Q 1394 2525 1328 2463 
Q 1188 2334 1038 2041 
L 1038 669 
Q 1038 431 1097 309 
Q 1138 225 1241 169 
Q 1344 113 1538 113 
L 1538 0 
L 72 0 
L 72 113 
Q 291 113 397 181 
Q 475 231 506 341 
Q 522 394 522 644 
L 522 1753 
Q 522 2253 501 2348 
Q 481 2444 426 2487 
Q 372 2531 291 2531 
Q 194 2531 72 2484 
L 41 2597 
L 906 2947 
L 1038 2947 
z
" transform="scale(0.015625)"/>
       <path id="TimesNewRomanPSMT-56" d="M 4544 4238 
L 4544 4122 
Q 4319 4081 4203 3978 
Q 4038 3825 3909 3509 
L 2431 -97 
L 2316 -97 
L 728 3556 
Q 606 3838 556 3900 
Q 478 3997 364 4051 
Q 250 4106 56 4122 
L 56 4238 
L 1788 4238 
L 1788 4122 
Q 1494 4094 1406 4022 
Q 1319 3950 1319 3838 
Q 1319 3681 1463 3350 
L 2541 866 
L 3541 3319 
Q 3688 3681 3688 3822 
Q 3688 3913 3597 3995 
Q 3506 4078 3291 4113 
Q 3275 4116 3238 4122 
L 3238 4238 
L 4544 4238 
z
" transform="scale(0.015625)"/>
      </defs>
      <use xlink:href="#TimesNewRomanPSMT-50"/>
      <use xlink:href="#TimesNewRomanPSMT-6f" x="55.615234"/>
      <use xlink:href="#TimesNewRomanPSMT-77" x="105.615234"/>
      <use xlink:href="#TimesNewRomanPSMT-65" x="177.832031"/>
      <use xlink:href="#TimesNewRomanPSMT-72" x="222.216797"/>
      <use xlink:href="#TimesNewRomanPSMT-20" x="255.517578"/>
      <use xlink:href="#TimesNewRomanPSMT-28" x="280.517578"/>
      <use xlink:href="#TimesNewRomanPSMT-6d" x="313.818359"/>
      <use xlink:href="#TimesNewRomanPSMT-56" x="391.601562"/>
      <use xlink:href="#TimesNewRomanPSMT-29" x="463.818359"/>
     </g>
    </g>
   </g>
   <g id="line2d_29">
    <path d="M 148.629045 188.937593 
L 148.96043 189.028942 
L 149.402276 189.415997 
L 150.285967 190.23631 
L 150.617352 190.250383 
L 150.985556 190.013534 
L 152.347914 188.805781 
L 152.679299 188.957284 
L 153.121144 189.452487 
L 153.894375 190.322404 
L 154.225759 190.379138 
L 154.557143 190.174957 
L 155.03581 189.550555 
L 155.698578 188.739668 
L 156.029963 188.653596 
L 156.324526 188.817327 
L 156.729552 189.337839 
L 157.576423 190.462368 
L 157.870987 190.518261 
L 158.165551 190.32812 
L 158.570576 189.750296 
L 159.380627 188.556994 
L 159.67519 188.470628 
L 159.932934 188.615703 
L 160.301139 189.125984 
L 161.258471 190.626272 
L 161.553035 190.669227 
L 161.810778 190.468352 
L 162.215804 189.79736 
L 163.025854 188.374598 
L 163.320418 188.258505 
L 163.578162 188.417109 
L 163.909546 188.932396 
L 164.97734 190.838943 
L 165.235083 190.840498 
L 165.492827 190.581584 
L 165.897852 189.770065 
L 166.671082 188.166675 
L 166.965646 188.013509 
L 167.186569 188.143644 
L 167.481133 188.615896 
L 168.733029 191.084483 
L 168.953952 191.004391 
L 169.211696 190.634592 
L 169.653541 189.517647 
L 170.31631 187.930613 
L 170.574053 187.732856 
L 170.794976 187.829302 
L 171.05272 188.238976 
L 171.494565 189.452112 
L 172.120514 191.083896 
L 172.415078 191.333284 
L 172.59918 191.250116 
L 172.856923 190.834373 
L 173.298769 189.542595 
L 173.961538 187.663703 
L 174.219281 187.412933 
L 174.403384 187.472025 
L 174.624307 187.801912 
L 174.992511 188.849944 
L 175.839382 191.426566 
L 176.097126 191.615763 
L 176.281228 191.491185 
L 176.538972 190.972039 
L 176.980817 189.435718 
L 177.606766 187.363167 
L 177.864509 187.048204 
L 178.048611 187.099822 
L 178.269534 187.46505 
L 178.637739 188.664689 
L 179.521431 191.758218 
L 179.742354 191.939623 
L 179.926456 191.813212 
L 180.184199 191.23207 
L 180.626045 189.464678 
L 181.288814 186.940271 
L 181.546557 186.620025 
L 181.73066 186.71476 
L 181.951583 187.177592 
L 182.319787 188.613512 
L 183.166659 192.071618 
L 183.387581 192.307306 
L 183.534863 192.230739 
L 183.755786 191.771709 
L 184.087171 190.446585 
L 185.044503 186.302551 
L 185.265426 186.141082 
L 185.412708 186.286422 
L 185.633631 186.866399 
L 186.001836 188.576022 
L 186.811886 192.42138 
L 187.032809 192.723054 
L 187.180091 192.654548 
L 187.364194 192.267094 
L 187.658758 191.043602 
L 188.763372 185.681384 
L 188.947474 185.607953 
L 189.094756 185.812709 
L 189.3525 186.695081 
L 189.794346 189.272131 
L 190.420294 192.695442 
L 190.678037 193.191238 
L 190.825319 193.135389 
L 191.009422 192.71606 
L 191.303985 191.33962 
L 192.44542 185.0451 
L 192.592702 184.986306 
L 192.739984 185.197738 
L 192.960907 185.993694 
L 193.365932 188.562801 
L 194.102342 193.239766 
L 194.360085 193.734177 
L 194.507367 193.62397 
L 194.69147 193.087099 
L 194.986034 191.436271 
L 196.090648 184.382877 
L 196.274751 184.311672 
L 196.422033 184.603128 
L 196.679776 185.801467 
L 197.121622 189.233479 
L 197.74757 193.7129 
L 198.005313 194.33084 
L 198.115775 194.290219 
L 198.263057 193.946603 
L 198.5208 192.614685 
L 198.999466 188.551284 
L 199.588594 184.130756 
L 199.846337 183.505867 
L 199.956799 183.565976 
L 200.140901 184.105459 
L 200.435465 185.977886 
L 201.613721 194.954923 
L 201.761003 194.975574 
L 201.908284 194.616866 
L 202.166028 193.145671 
L 202.607874 188.9324 
L 203.233822 183.416663 
L 203.491565 182.641189 
L 203.602027 182.681883 
L 203.749309 183.089831 
L 204.007052 184.696977 
L 204.485718 189.629053 
L 205.074846 195.004765 
L 205.332589 195.763128 
L 205.443051 195.688456 
L 205.590333 195.212237 
L 205.848076 193.433908 
L 206.326742 188.108939 
L 206.87905 182.634616 
L 207.136793 181.68165 
L 207.247255 181.696163 
L 207.394536 182.119163 
L 207.65228 183.886129 
L 208.094126 188.977275 
L 208.720074 195.656185 
L 208.977817 196.593834 
L 209.088279 196.542993 
L 209.235561 196.045771 
L 209.493304 194.090457 
L 209.97197 188.088769 
L 210.561098 181.526135 
L 210.818841 180.581726 
L 210.929303 180.660903 
L 211.076585 181.222752 
L 211.334328 183.351371 
L 211.812994 189.760574 
L 212.365302 196.361825 
L 212.623045 197.509731 
L 212.733507 197.490707 
L 212.880788 196.977393 
L 213.138532 194.837232 
L 213.580378 188.669965 
L 214.206326 180.555403 
L 214.464069 179.395775 
L 214.574531 179.444498 
L 214.721813 180.027404 
L 214.979556 182.357085 
L 215.458222 189.549494 
L 216.04735 197.429582 
L 216.305093 198.562189 
L 216.378734 198.537337 
L 216.526016 198.014281 
L 216.746939 196.115477 
L 217.151965 190.072228 
L 217.888374 179.186666 
L 218.146118 178.054569 
L 218.219759 178.102553 
L 218.36704 178.700258 
L 218.587963 180.771329 
L 218.992989 187.232533 
L 219.692578 198.298035 
L 219.950321 199.683486 
L 220.023962 199.688299 
L 220.134424 199.360775 
L 220.318526 197.952755 
L 220.64991 193.150649 
L 221.644063 177.133524 
L 221.828166 176.594813 
L 221.938627 176.837004 
L 222.12273 178.16425 
L 222.417294 182.363642 
L 223.521908 200.664674 
L 223.66919 200.948557 
L 223.779651 200.635465 
L 223.963754 199.139252 
L 224.258318 194.573446 
L 225.326112 175.453638 
L 225.473394 174.997102 
L 225.510214 175.015094 
L 225.620676 175.387715 
L 225.804778 177.035417 
L 226.136162 182.703987 
L 227.130315 201.685076 
L 227.314418 202.322497 
L 227.388059 202.185933 
L 227.535341 201.245267 
L 227.793084 197.636994 
L 228.27175 186.703733 
L 228.824058 175.353359 
L 229.081801 173.320388 
L 229.155442 173.257597 
L 229.192262 173.315549 
L 229.339544 174.137783 
L 229.560467 177.033968 
L 229.965493 186.125936 
L 230.665082 201.779089 
L 230.922825 203.772552 
L 230.996466 203.792072 
L 231.106928 203.350065 
L 231.29103 201.398621 
L 231.622414 194.685347 
L 232.616567 172.137842 
L 232.80067 171.350925 
L 232.874311 171.498093 
L 233.021593 172.580322 
L 233.279336 176.791366 
L 233.758002 189.619353 
L 234.31031 202.963207 
L 234.568053 205.353577 
L 234.641694 205.426762 
L 234.678514 205.358147 
L 234.825796 204.388289 
L 235.046719 200.974122 
L 235.451745 190.251843 
L 236.151334 171.742318 
L 236.409077 169.347431 
L 236.482718 169.309163 
L 236.59318 169.805504 
L 236.777282 172.060595 
L 237.108666 179.885084 
L 238.102819 206.267962 
L 238.286922 207.188848 
L 238.360563 207.015699 
L 238.507845 205.745409 
L 238.765588 200.803487 
L 239.244254 185.738479 
L 239.796562 170.022303 
L 240.054305 167.168433 
L 240.127946 167.066053 
L 240.164766 167.137929 
L 240.275228 167.843309 
L 240.496151 171.351611 
L 240.864356 182.062873 
L 241.674406 206.859174 
L 241.895329 209.014316 
L 241.93215 209.079587 
L 241.96897 209.058568 
L 242.079432 208.478489 
L 242.263534 205.84413 
L 242.594918 196.701023 
L 243.589071 165.778218 
L 243.773174 164.660149 
L 243.846815 164.843528 
L 243.994097 166.286756 
L 244.25184 171.981745 
L 244.730506 189.433524 
L 245.282814 207.67684 
L 245.540557 210.991949 
L 245.614198 211.11075 
L 245.651018 211.02712 
L 245.76148 210.206894 
L 245.982403 206.127085 
L 246.350608 193.664432 
L 247.160658 164.734951 
L 247.418402 162.091201 
L 247.492043 162.220249 
L 247.639325 163.669153 
L 247.860247 168.621429 
L 248.265273 183.960719 
L 248.964862 210.029643 
L 249.222605 213.245449 
L 249.259426 213.296995 
L 249.296246 213.243473 
L 249.406708 212.454619 
L 249.59081 209.120858 
L 249.922194 197.835482 
L 250.879527 161.110056 
L 251.10045 159.336271 
L 251.174091 159.617891 
L 251.321373 161.483416 
L 251.579116 168.560678 
L 252.057782 189.838408 
L 252.61009 211.704732 
L 252.867833 215.516057 
L 252.904654 215.614943 
L 252.941474 215.598544 
L 253.051936 214.858358 
L 253.236038 211.394482 
L 253.530602 200.903535 
L 254.598396 157.402044 
L 254.745678 156.401037 
L 254.782498 156.450924 
L 254.89296 157.323 
L 255.077062 161.098757 
L 255.408446 173.978862 
L 256.365779 216.051947 
L 256.586702 218.088967 
L 256.660343 217.766738 
L 256.807625 215.627827 
L 257.065368 207.507085 
L 257.544034 183.06731 
L 258.096342 157.879268 
L 258.354085 153.430353 
L 258.427726 153.31086 
L 258.538188 154.12059 
L 258.72229 158.024177 
L 259.016854 169.941594 
L 260.084648 219.563664 
L 260.23193 220.709549 
L 260.26875 220.65324 
L 260.379212 219.659021 
L 260.563314 215.348039 
L 260.894698 200.629595 
L 261.888851 151.661257 
L 262.072954 150.008055 
L 262.146595 150.348392 
L 262.293877 152.732813 
L 262.55162 161.899055 
L 263.030286 189.61781 
L 263.582594 218.244658 
L 263.840337 223.309247 
L 263.913978 223.44704 
L 264.024439 222.528905 
L 264.208542 218.092677 
L 264.503106 204.536355 
L 265.5709 147.908728 
L 265.718182 146.551006 
L 265.755002 146.600493 
L 265.865464 147.68561 
L 266.049566 152.507255 
L 266.38095 169.093466 
L 267.375103 224.485913 
L 267.559206 226.363913 
L 267.632847 225.981054 
L 267.780129 223.285516 
L 268.037872 212.909054 
L 268.516538 181.492922 
L 269.068846 148.956424 
L 269.326589 143.128585 
L 269.40023 142.942165 
L 269.437051 143.103538 
L 269.584332 145.429305 
L 269.805255 153.641022 
L 270.210281 179.39465 
L 270.90987 223.625341 
L 271.167613 229.27095 
L 271.204434 229.393286 
L 271.241254 229.339127 
L 271.351716 228.12047 
L 271.535818 222.690567 
L 271.867202 203.989573 
L 272.861355 141.338027 
L 273.045458 139.144026 
L 273.119099 139.542049 
L 273.266381 142.509707 
L 273.524124 154.074979 
L 274.00279 189.254624 
L 274.555098 225.766538 
L 274.812841 232.320628 
L 274.886482 232.533965 
L 274.923302 232.35485 
L 275.033764 230.681631 
L 275.254687 222.480878 
L 275.622892 197.608796 
L 276.432942 140.34866 
L 276.653865 135.375721 
L 276.690686 135.221368 
L 276.727506 135.264696 
L 276.837968 136.577864 
L 277.02207 142.575311 
L 277.353454 163.383461 
L 278.347607 233.359976 
L 278.53171 235.824191 
L 278.605351 235.384294 
L 278.752633 232.076602 
L 279.010376 219.160322 
L 279.489042 179.816458 
L 280.04135 138.870422 
L 280.299093 131.435401 
L 280.372734 131.16086 
L 280.409554 131.342303 
L 280.520016 133.153674 
L 280.740939 142.193458 
L 281.109144 169.776441 
L 281.919194 233.468076 
L 282.140117 239.018558 
L 282.176938 239.19332 
L 282.213758 239.148103 
L 282.32422 237.695572 
L 282.508322 231.033977 
L 282.839706 207.885412 
L 283.833859 129.791936 
L 284.017962 126.959712 
L 284.091603 127.409606 
L 284.238885 131.006128 
L 284.496628 145.22149 
L 284.975294 188.720408 
L 285.527602 234.089401 
L 285.785345 242.349553 
L 285.858986 242.660837 
L 285.895806 242.463342 
L 286.006268 240.466654 
L 286.227191 230.467408 
L 286.595396 199.909556 
L 287.405446 129.153455 
L 287.66319 122.683621 
L 287.70001 122.713348 
L 287.810472 124.258664 
L 287.994574 131.524982 
L 288.289138 153.520901 
L 289.356932 244.199297 
L 289.504214 246.224681 
L 289.541034 246.106233 
L 289.651496 244.249584 
L 289.835598 236.338299 
L 290.166982 209.529825 
L 291.124315 122.507599 
L 291.345238 118.294199 
L 291.418879 118.945457 
L 291.566161 123.308621 
L 291.823904 139.883874 
L 292.302571 189.643307 
L 292.854878 240.664662 
L 293.112621 249.578119 
L 293.149442 249.817402 
L 293.186262 249.789563 
L 293.296724 248.106366 
L 293.480826 240.146034 
L 293.77539 216.004448 
L 294.843184 116.148181 
L 294.990466 113.840104 
L 295.027286 113.947797 
L 295.137748 115.916646 
L 295.32185 124.480299 
L 295.653234 153.689369 
L 296.610567 248.849354 
L 296.83149 253.489531 
L 296.905131 252.788257 
L 297.052413 248.037294 
L 297.310156 229.937367 
L 297.788822 175.509226 
L 298.34113 119.549069 
L 298.598873 109.664007 
L 298.635694 109.379877 
L 298.672514 109.387239 
L 298.782976 111.155273 
L 298.967078 119.730305 
L 299.261642 145.912375 
L 300.329436 254.642574 
L 300.476718 257.180619 
L 300.513538 257.069623 
L 300.624 254.944208 
L 300.808102 245.646879 
L 301.139486 213.869493 
L 302.096819 110.023194 
L 302.317742 104.839288 
L 302.391383 105.553599 
L 302.538665 110.621647 
L 302.796408 130.13292 
L 303.275074 189.048432 
L 303.827382 249.757233 
L 304.085125 260.520718 
L 304.158766 260.834935 
L 304.195587 260.517673 
L 304.342868 256.122354 
L 304.563791 240.76278 
L 304.968817 192.854664 
L 305.668406 110.988869 
L 305.926149 100.565207 
L 305.96297 100.336192 
L 305.99979 100.431619 
L 306.110252 102.657371 
L 306.294354 112.596232 
L 306.625738 146.782312 
L 307.619891 260.651688 
L 307.803994 264.548175 
L 307.877635 263.792876 
L 308.024917 258.352243 
L 308.28266 237.332751 
L 308.761326 173.7435 
L 309.313634 108.044365 
L 309.571377 96.276346 
L 309.645018 95.887112 
L 309.681839 96.203482 
L 309.7923 99.180994 
L 310.013223 113.785987 
L 310.381428 157.998393 
L 311.191478 259.244664 
L 311.412401 267.925139 
L 311.449222 268.180106 
L 311.486042 268.086362 
L 311.596504 265.72019 
L 311.780606 255.077731 
L 312.11199 218.381533 
L 313.106143 95.752435 
L 313.290246 91.443848 
L 313.363887 92.201833 
L 313.511169 97.934101 
L 313.768912 120.308391 
L 314.247578 188.268364 
L 314.799886 258.642764 
L 315.057629 271.300693 
L 315.13127 271.736733 
L 315.168091 271.407904 
L 315.278552 268.250171 
L 315.499475 252.671862 
L 315.86768 205.405834 
L 316.67773 96.863216 
L 316.898653 87.436228 
L 316.935474 87.137297 
L 316.972294 87.210732 
L 317.082756 89.657811 
L 317.266858 100.893337 
L 317.598242 139.873104 
L 318.592395 270.613411 
L 318.776498 275.257165 
L 318.850139 274.470903 
L 318.997421 268.404389 
L 319.255164 244.62494 
L 319.73383 172.245929 
L 320.286138 97.100063 
L 320.543881 83.455799 
L 320.617522 82.93781 
L 320.654342 83.260249 
L 320.764804 86.536643 
L 320.985727 102.944241 
L 321.353932 152.978841 
L 322.163982 268.219371 
L 322.421726 278.617048 
L 322.458546 278.550866 
L 322.569008 275.989539 
L 322.75311 264.123799 
L 323.084494 222.839932 
L 324.078647 83.915355 
L 324.26275 78.862 
L 324.336391 79.639125 
L 324.483673 85.952294 
L 324.741416 110.947127 
L 325.220082 187.321205 
L 325.77239 266.798187 
L 326.030133 281.295327 
L 326.103774 281.867964 
L 326.140594 281.540102 
L 326.251056 278.116845 
L 326.471979 260.853993 
L 326.840184 208.074879 
L 327.650234 86.171516 
L 327.907978 75.018846 
L 327.944798 75.060598 
L 328.05526 77.676706 
L 328.239362 90.048316 
L 328.533926 127.501516 
L 329.60172 281.496228 
L 329.749002 284.975009 
L 329.785822 284.791556 
L 329.896284 281.714111 
L 330.080386 268.48976 
L 330.411771 223.630273 
L 331.369103 78.378288 
L 331.590026 71.328718 
L 331.663667 72.389299 
L 331.810949 79.577505 
L 332.068692 106.92279 
L 332.547359 188.892674 
L 333.099666 272.752691 
L 333.357409 287.435788 
L 333.39423 287.842919 
L 333.43105 287.814051 
L 333.541512 285.11869 
L 333.725614 272.232844 
L 334.020178 233.0999 
L 335.087972 71.636183 
L 335.235254 67.887814 
L 335.272074 68.051065 
L 335.382536 71.181932 
L 335.566638 84.863588 
L 335.898022 131.52355 
L 336.855355 283.134878 
L 337.076278 290.579051 
L 337.149919 289.504982 
L 337.297201 282.07196 
L 337.554944 253.654787 
L 338.033611 168.270527 
L 338.585918 80.693196 
L 338.843661 65.221991 
L 338.917302 64.771406 
L 338.954123 65.226711 
L 339.101405 71.526681 
L 339.322327 93.505755 
L 339.727353 161.869322 
L 340.426942 278.097441 
L 340.684685 292.753108 
L 340.721506 293.05983 
L 340.758326 292.907327 
L 340.868788 289.707523 
L 341.05289 275.583634 
L 341.384274 227.255442 
L 342.341607 69.717224 
L 342.56253 61.836358 
L 342.636171 62.892059 
L 342.783453 70.479868 
L 343.041196 99.735343 
L 343.519862 187.94464 
L 344.07217 278.63405 
L 344.329913 294.746596 
L 344.403554 295.248368 
L 344.440375 294.79575 
L 344.587657 288.354585 
L 344.808579 265.732747 
L 345.213605 195.184933 
L 345.913194 74.928927 
L 346.170937 59.618754 
L 346.207758 59.274015 
L 346.244578 59.402919 
L 346.35504 62.618561 
L 346.539142 77.049758 
L 346.870526 126.683803 
L 347.827859 289.042333 
L 348.048782 297.265599 
L 348.122423 296.217157 
L 348.269705 288.482406 
L 348.527448 258.489544 
L 349.006114 167.823913 
L 349.558422 74.374451 
L 349.816165 57.635851 
L 349.889806 57.064229 
L 349.926627 57.500894 
L 350.037088 61.675826 
L 350.258011 82.22157 
L 350.626216 144.379562 
L 351.436266 286.359525 
L 351.657189 298.565388 
L 351.69401 298.938696 
L 351.73083 298.826674 
L 351.841292 295.591342 
L 352.025394 280.898509 
L 352.356778 230.175684 
L 353.350931 61.098976 
L 353.535034 55.139281 
L 353.608675 56.155667 
L 353.755957 63.954977 
L 354.0137 94.44585 
L 354.492366 186.924971 
L 355.044674 282.472993 
L 355.302417 299.692329 
L 355.376058 300.317582 
L 355.412879 299.893088 
L 355.52334 295.695949 
L 355.744263 274.850804 
L 356.112468 211.578596 
L 356.922518 66.642418 
L 357.143441 54.05463 
L 357.180262 53.647131 
L 357.217082 53.733721 
L 357.327544 56.945623 
L 357.511646 71.772324 
L 357.84303 123.209041 
L 358.837183 295.274533 
L 359.021286 301.437391 
L 359.094927 300.448775 
L 359.242209 292.611876 
L 359.499952 261.773696 
L 359.978618 167.979438 
L 360.530926 70.833046 
L 360.788669 53.195492 
L 360.86231 52.507808 
L 360.899131 52.911162 
L 361.009592 57.085511 
L 361.230515 78.063196 
L 361.59872 141.99664 
L 362.40877 288.874216 
L 362.666514 302.174542 
L 362.703334 302.109813 
L 362.813796 298.929275 
L 362.997898 284.041685 
L 363.329282 232.178095 
L 364.323435 58.088842 
L 364.507538 51.738075 
L 364.581179 52.683176 
L 364.728461 60.489173 
L 364.986204 91.446942 
L 365.46487 185.905703 
L 366.017178 283.978942 
L 366.274921 301.90073 
L 366.348562 302.64058 
L 366.385382 302.258036 
L 366.495844 298.124533 
L 366.716767 277.131486 
L 367.084972 212.917705 
L 367.895022 64.974131 
L 368.152766 51.432273 
L 368.189586 51.471608 
L 368.300048 54.591045 
L 368.48415 69.428585 
L 368.778714 114.351076 
L 369.846508 298.570208 
L 369.99379 302.777727 
L 370.03061 302.579111 
L 370.141072 298.986798 
L 370.325174 283.415817 
L 370.656559 230.539333 
L 371.613891 59.757144 
L 371.834814 51.449234 
L 371.908455 52.665495 
L 372.055737 61.007248 
L 372.31348 92.785641 
L 372.828967 195.7863 
L 373.344454 284.995763 
L 373.602197 302.032686 
L 373.639018 302.519841 
L 373.675838 302.505691 
L 373.7863 299.46634 
L 373.970402 284.773457 
L 374.264966 240.090199 
L 375.33276 56.181165 
L 375.480042 51.893552 
L 375.516862 52.067263 
L 375.627324 55.574047 
L 375.811426 70.971275 
L 376.142811 123.476101 
L 377.100143 293.627794 
L 377.321066 302.038718 
L 377.394707 300.881087 
L 377.541989 292.689974 
L 377.799732 261.26263 
L 378.278399 166.908672 
L 378.830706 70.362987 
L 379.088449 53.306533 
L 379.16209 52.790814 
L 379.198911 53.278748 
L 379.346193 60.132283 
L 379.567115 84.098572 
L 379.972141 158.569325 
L 380.67173 284.87198 
L 380.929473 300.833471 
L 380.966294 301.183153 
L 381.003114 301.037483 
L 381.113576 297.645006 
L 381.297678 282.531537 
L 381.629063 230.757875 
L 382.586395 62.409286 
L 382.807318 53.970261 
L 382.880959 55.06892 
L 383.028241 63.071115 
L 383.285984 93.970925 
L 383.764651 187.001943 
L 384.316958 282.432706 
L 384.574701 299.422127 
L 384.648342 299.983707 
L 384.685163 299.529553 
L 384.795624 295.256403 
L 385.016547 274.346214 
L 385.384752 211.330525 
L 386.194802 68.169114 
L 386.415725 55.958914 
L 386.452546 55.593695 
L 386.489366 55.715559 
L 386.599828 58.987816 
L 386.78393 73.748011 
L 387.115314 124.509947 
L 388.072647 290.117919 
L 388.29357 298.55852 
L 388.367211 297.534571 
L 388.514493 289.789328 
L 388.772236 259.642877 
L 389.250903 168.58246 
L 389.80321 74.950875 
L 390.060953 58.180018 
L 390.134594 57.589493 
L 390.171415 58.013799 
L 390.281876 62.137146 
L 390.502799 82.496681 
L 390.871004 144.053791 
L 391.681054 284.303667 
L 391.901977 296.392571 
L 391.938798 296.776652 
L 391.975618 296.684907 
L 392.08608 293.569647 
L 392.270182 279.281291 
L 392.601566 229.8944 
L 393.558899 68.219112 
L 393.779822 59.876873 
L 393.853463 60.836479 
L 394.000745 68.311325 
L 394.258488 97.580971 
L 394.737154 186.227733 
L 395.289462 277.608676 
L 395.547205 294.108317 
L 395.620846 294.737618 
L 395.657667 294.35235 
L 395.768128 290.423334 
L 395.989051 270.775836 
L 396.357256 211.113021 
L 397.167306 74.78599 
L 397.42505 62.555197 
L 397.46187 62.625995 
L 397.572332 65.595346 
L 397.756434 79.377573 
L 398.087818 127.189397 
L 399.081971 286.705751 
L 399.266074 292.465735 
L 399.339715 291.591386 
L 399.486997 284.460571 
L 399.74474 256.289843 
L 400.223406 170.671307 
L 400.775714 82.205243 
L 401.033457 66.145173 
L 401.107098 65.502713 
L 401.143919 65.857884 
L 401.25438 69.604025 
L 401.475303 88.496784 
L 401.843508 146.042653 
L 402.653558 277.908763 
L 402.911302 289.891976 
L 402.948122 289.851211 
L 403.058584 287.070049 
L 403.242686 273.912756 
L 403.57407 228.017205 
L 404.568223 74.345661 
L 404.752326 68.723954 
L 404.825967 69.53316 
L 404.973249 76.331845 
L 405.230992 103.34131 
L 405.709658 185.635122 
L 406.261966 270.883607 
L 406.519709 286.489394 
L 406.59335 287.160948 
L 406.630171 286.847313 
L 406.740632 283.332164 
L 406.961555 265.34943 
L 407.32976 210.316682 
L 408.13981 83.841529 
L 408.397554 72.259302 
L 408.434374 72.283363 
L 408.544836 74.903217 
L 408.728938 87.438123 
L 409.023502 125.39292 
L 410.091296 280.628279 
L 410.238578 284.211804 
L 410.275398 284.061728 
L 410.38586 281.108633 
L 410.569962 268.194314 
L 410.901347 224.291052 
L 411.858679 82.844697 
L 412.079602 75.948312 
L 412.153243 76.930505 
L 412.300525 83.749359 
L 412.558268 109.763436 
L 413.073755 193.947955 
L 413.589242 266.697779 
L 413.846985 280.621886 
L 413.920626 281.035826 
L 413.957447 280.634039 
L 414.104729 275.031684 
L 414.325651 255.500186 
L 414.730677 195.005362 
L 415.430266 92.927758 
L 415.688009 80.139935 
L 415.72483 79.870714 
L 415.76165 80.0004 
L 415.872112 82.766986 
L 416.056214 94.9729 
L 416.387599 136.590989 
L 417.344931 271.105235 
L 417.565854 277.79821 
L 417.639495 276.920257 
L 417.786777 270.562364 
L 418.04452 246.07979 
L 418.523187 172.633411 
L 419.075494 97.660824 
L 419.333237 84.41516 
L 419.406878 84.000112 
L 419.443699 84.368267 
L 419.590981 89.619996 
L 419.811903 108.028499 
L 420.216929 165.173108 
L 420.916518 261.854107 
L 421.174261 274.098604 
L 421.211082 274.378615 
L 421.247902 274.282233 
L 421.358364 271.749324 
L 421.542466 260.357655 
L 421.873851 221.287684 
L 422.831183 94.562844 
L 423.052106 88.197628 
L 423.125747 89.002719 
L 423.273029 94.947262 
L 423.530772 117.936859 
L 424.009439 187.051465 
L 424.561746 257.788552 
L 424.819489 270.406735 
L 424.89313 270.847524 
L 424.929951 270.527063 
L 425.040412 267.425901 
L 425.261335 252.150268 
L 425.62954 206.096627 
L 426.43959 101.731368 
L 426.660513 92.829599 
L 426.697334 92.557282 
L 426.734154 92.637813 
L 426.844616 94.983199 
L 427.028718 105.617416 
L 427.360103 142.187393 
L 428.317435 261.17858 
L 428.538358 267.280358 
L 428.611999 266.576829 
L 428.759281 261.114038 
L 429.017024 239.769986 
L 429.495691 175.346457 
L 430.047998 109.262437 
L 430.305741 97.42624 
L 430.379382 96.997055 
L 430.416203 97.287304 
L 430.526664 100.155797 
L 430.747587 114.367269 
L 431.115792 157.309815 
L 431.925842 254.899824 
L 432.146765 263.33317 
L 432.183586 263.610916 
L 432.220406 263.560039 
L 432.330868 261.447681 
L 432.51497 251.660183 
L 432.846354 217.787802 
L 433.803687 107.17662 
L 434.02461 101.459167 
L 434.098251 102.097069 
L 434.245533 107.143265 
L 434.503276 126.935364 
L 434.981943 186.791778 
L 435.53425 248.354326 
L 435.791993 259.490538 
L 435.865634 259.935282 
L 435.902455 259.689491 
L 436.012916 257.099105 
L 436.233839 244.05462 
L 436.602044 204.424875 
L 437.412094 114.098229 
L 437.669838 105.989784 
L 437.706658 106.029726 
L 437.81712 107.963224 
L 438.001222 116.987611 
L 438.332606 148.29345 
L 439.32676 252.463732 
L 439.510862 256.255051 
L 439.584503 255.711192 
L 439.731785 251.141124 
L 439.989528 233.01397 
L 440.468194 177.960177 
L 441.020502 121.211561 
L 441.278245 110.910599 
L 441.351886 110.488202 
L 441.388707 110.708332 
L 441.499168 113.076328 
L 441.720091 125.061886 
L 442.088296 161.548073 
L 442.898346 244.94276 
L 443.15609 252.547257 
L 443.19291 252.532283 
L 443.303372 250.81976 
L 443.487474 242.629065 
L 443.818858 214.019958 
L 444.813011 118.467109 
L 444.997114 114.961954 
L 445.070755 115.44973 
L 445.218037 119.620694 
L 445.47578 136.219964 
L 445.954446 186.723377 
L 446.506754 238.920898 
L 446.764497 248.492751 
L 446.838138 248.921107 
L 446.874959 248.740472 
L 446.98542 246.635176 
L 447.206343 235.784596 
L 447.574548 202.56144 
L 448.384598 126.398608 
L 448.642342 119.420768 
L 448.679162 119.429569 
L 448.789624 120.9793 
L 448.973726 128.438691 
L 449.26829 151.027707 
L 450.336084 243.173099 
L 450.483366 245.322344 
L 450.520186 245.243366 
L 450.630648 243.533761 
L 450.81475 235.989086 
L 451.146135 210.311343 
L 452.103467 127.789351 
L 452.32439 123.757051 
L 452.398031 124.315581 
L 452.545313 128.241869 
L 452.803056 143.242574 
L 453.318543 191.710353 
L 453.83403 233.501066 
L 454.091773 241.516868 
L 454.165414 241.770625 
L 454.202235 241.550297 
L 454.349517 238.39308 
L 454.57044 227.330417 
L 454.975465 193.071685 
L 455.675054 135.406145 
L 455.932797 128.182637 
L 455.969618 128.026566 
L 456.006438 128.094456 
L 456.1169 129.631791 
L 456.301002 136.447667 
L 456.632387 159.685358 
L 457.589719 234.593274 
L 457.810642 238.344261 
L 457.884283 237.875769 
L 458.031565 234.399807 
L 458.289308 220.965078 
L 458.804795 177.359518 
L 459.320282 139.681548 
L 459.578025 132.435861 
L 459.651666 132.200952 
L 459.688487 132.396522 
L 459.798948 134.220076 
L 460.019871 143.100439 
L 460.388076 169.722632 
L 461.198126 229.724791 
L 461.419049 234.826828 
L 461.45587 234.984364 
L 461.49269 234.94043 
L 461.603152 233.608667 
L 461.787254 227.560505 
L 462.118639 206.792104 
L 463.075971 139.5962 
L 463.296894 136.214479 
L 463.370535 136.629891 
L 463.517817 139.740487 
L 463.77556 151.789004 
L 464.291047 190.954664 
L 464.806534 224.8929 
L 465.064277 231.494051 
L 465.137918 231.736821 
L 465.174739 231.577827 
L 465.2852 229.992737 
L 465.506123 222.132097 
L 465.874328 198.42349 
L 466.684378 144.82967 
L 466.905301 140.258287 
L 466.942122 140.115371 
L 466.978942 140.152512 
L 467.089404 141.336552 
L 467.273506 146.733426 
L 467.604891 165.291764 
L 468.562223 225.516628 
L 468.783146 228.623302 
L 468.856787 228.283277 
L 469.004069 225.56944 
L 469.261812 214.924585 
L 469.740479 182.818504 
L 470.292786 149.963682 
L 470.550529 144.079441 
L 470.62417 143.859975 
L 470.660991 143.999743 
L 470.771452 145.405338 
L 470.992375 152.393052 
L 471.36058 173.495147 
L 472.17063 221.32904 
L 472.428374 225.614129 
L 472.465194 225.59545 
L 472.575656 224.586818 
L 472.759758 219.864302 
L 473.091143 203.4997 
L 474.048475 150.192824 
L 474.269398 147.432704 
L 474.343039 147.731262 
L 474.490321 150.130875 
L 474.748064 159.558294 
L 475.226731 188.028269 
L 475.779038 217.243182 
L 476.036781 222.537453 
L 476.110422 222.75823 
L 476.147243 222.648029 
L 476.257704 221.445232 
L 476.478627 215.344756 
L 476.846832 196.802374 
L 477.656882 154.644511 
L 477.914626 150.858033 
L 477.951446 150.873463 
L 478.061908 151.760225 
L 478.24601 155.922579 
L 478.577394 170.361781 
L 479.534727 217.534472 
L 479.75565 220.038488 
L 479.829291 219.8006 
L 479.976573 217.737627 
L 480.234316 209.521197 
L 480.712983 184.58475 
L 481.26529 158.942125 
L 481.523033 154.288088 
L 481.596674 154.092636 
L 481.633495 154.188662 
L 481.743956 155.242996 
L 481.964879 160.599061 
L 482.333084 176.894685 
L 483.143134 214.045736 
L 483.400878 217.444768 
L 483.437698 217.442838 
L 483.54816 216.70029 
L 483.732262 213.108701 
L 484.063646 200.546562 
L 485.0578 158.693949 
L 485.241902 157.154573 
L 485.315543 157.361562 
L 485.462825 159.164008 
L 485.720568 166.350029 
L 486.199235 188.182497 
L 486.751542 210.695851 
L 487.009285 214.831207 
L 487.082926 215.023256 
L 487.119747 214.950197 
L 487.230208 214.062175 
L 487.451131 209.450414 
L 487.819336 195.322201 
L 488.629386 163.014223 
L 488.88713 160.053038 
L 488.960771 160.163165 
L 489.108053 161.653619 
L 489.328976 166.81602 
L 489.734001 182.709681 
L 490.43359 209.329077 
L 490.691333 212.659669 
L 490.728154 212.733416 
L 490.764974 212.704553 
L 490.875436 212.007565 
L 491.059538 208.902844 
L 491.390923 198.323892 
L 492.348255 164.410092 
L 492.569178 162.749408 
L 492.642819 162.973057 
L 492.790101 164.565518 
L 493.047844 170.658663 
L 493.563331 190.315 
L 494.078818 207.225424 
L 494.336561 210.475778 
L 494.410202 210.584831 
L 494.447023 210.499858 
L 494.594305 209.246679 
L 494.815228 204.832967 
L 495.220253 191.166646 
L 495.919842 168.219375 
L 496.177585 165.345158 
L 496.214406 165.281487 
L 496.251226 165.30639 
L 496.361688 165.90809 
L 496.54579 168.589087 
L 496.877175 177.72878 
L 497.834507 207.113031 
L 498.05543 208.593589 
L 498.129071 208.417705 
L 498.276353 207.079177 
L 498.534096 201.886122 
L 499.049583 185.045164 
L 499.56507 170.528393 
L 499.822813 167.736448 
L 499.896454 167.642935 
L 499.933275 167.716075 
L 500.080557 168.793803 
L 500.30148 172.58985 
L 500.706505 184.350721 
L 501.406094 204.15143 
L 501.663837 206.669558 
L 501.737478 206.718165 
L 501.84794 206.225067 
L 502.032042 203.963174 
L 502.363427 196.186594 
L 503.320759 171.087809 
L 503.541682 169.822294 
L 503.615323 169.973217 
L 503.762605 171.119744 
L 504.020348 175.567718 
L 504.535835 190.004175 
L 505.051322 202.485649 
L 505.309065 204.91812 
L 505.382706 205.011985 
L 505.419527 204.956529 
L 505.529988 204.385926 
L 505.750911 201.536655 
L 506.119116 192.939104 
L 506.929166 173.552474 
L 507.150089 171.898848 
L 507.22373 171.857983 
L 507.260551 171.934453 
L 507.407833 172.873143 
L 507.665576 176.733123 
L 508.144242 188.605603 
L 508.69655 200.968042 
L 508.954293 203.298876 
L 509.027934 203.428019 
L 509.064755 203.400721 
L 509.175216 202.955093 
L 509.359318 201.057976 
L 509.690703 194.698349 
L 510.648035 174.632612 
L 510.868958 173.706637 
L 510.97942 174.02093 
L 511.163522 175.651544 
L 511.458086 180.679195 
L 512.52588 201.435319 
L 512.709982 201.959831 
L 512.820444 201.620687 
L 513.004546 200.015643 
L 513.335931 194.44647 
L 514.293263 176.349899 
L 514.514186 175.411343 
L 514.587827 175.509723 
L 514.735109 176.313494 
L 514.992852 179.476647 
L 515.471519 189.015409 
L 516.023826 198.781477 
L 516.281569 200.554363 
L 516.35521 200.631368 
L 516.392031 200.596653 
L 516.502492 200.203316 
L 516.723415 198.193681 
L 517.09162 192.082342 
L 517.90167 178.22212 
L 518.159414 176.976606 
L 518.233055 177.030625 
L 518.380337 177.681401 
L 518.63808 180.401496 
L 519.116746 188.820566 
L 519.705874 197.990841 
L 519.963618 199.383519 
L 520.037258 199.397022 
L 520.074079 199.338818 
L 520.221361 198.682899 
L 520.479104 196.059535 
L 520.957771 188.103261 
L 521.510078 179.941227 
L 521.767821 178.46006 
L 521.841462 178.396405 
L 521.878283 178.425887 
L 521.988744 178.756541 
L 522.209667 180.442542 
L 522.577872 185.569285 
L 523.387922 197.227483 
L 523.645666 198.297593 
L 523.719307 198.260906 
L 523.866589 197.733883 
L 524.087512 195.900815 
L 524.492537 190.262906 
L 525.192126 180.868756 
L 525.449869 179.710909 
L 525.560331 179.749433 
L 525.707613 180.298091 
L 525.965356 182.489453 
L 526.444023 189.137796 
L 526.99633 195.977821 
L 527.254073 197.236275 
L 527.364535 197.276063 
L 527.474996 197.012265 
L 527.695919 195.631573 
L 528.064124 191.399432 
L 528.874174 181.745474 
L 529.131918 180.860304 
L 529.242379 180.954856 
L 529.426482 181.730585 
L 529.721046 184.349499 
L 530.86248 196.229582 
L 531.009762 196.380157 
L 531.120224 196.180051 
L 531.304326 195.280104 
L 531.635711 192.209993 
L 532.593043 182.39224 
L 532.813966 181.910486 
L 532.924428 182.046762 
L 533.10853 182.812075 
L 533.403094 185.216401 
L 534.470888 195.28974 
L 534.65499 195.568646 
L 534.765452 195.421373 
L 534.949554 194.674584 
L 535.280938 192.033628 
L 536.275092 183.194768 
L 536.496014 182.864699 
L 536.643296 183.133819 
L 536.864219 184.219146 
L 537.269245 187.746239 
L 538.005654 194.109865 
L 538.263398 194.82536 
L 538.373859 194.79024 
L 538.521141 194.427187 
L 538.778884 193.013221 
L 539.294371 188.431595 
L 539.809858 184.49173 
L 540.067601 183.733928 
L 540.214883 183.767675 
L 540.398986 184.281805 
L 540.693549 186.037611 
L 541.834984 194.066919 
L 542.019087 194.153415 
L 542.166369 193.864617 
L 542.424112 192.671129 
L 542.902778 189.00491 
L 543.455086 185.20713 
L 543.712829 184.500091 
L 543.860111 184.502078 
L 544.044213 184.91819 
L 544.338777 186.40946 
L 545.517033 193.530585 
L 545.664315 193.58156 
L 545.811597 193.354859 
L 546.06934 192.352176 
L 546.548006 189.187333 
L 547.137134 185.697804 
L 547.394877 185.151955 
L 547.542159 185.195091 
L 547.726262 185.60571 
L 548.020826 186.962513 
L 549.12544 192.948896 
L 549.309543 193.070189 
L 549.456824 192.895008 
L 549.677747 192.21333 
L 550.082773 190.029002 
L 550.782362 186.263699 
L 551.040105 185.755408 
L 551.187387 185.77213 
L 551.37149 186.103984 
L 551.666053 187.250769 
L 552.807488 192.537686 
L 552.991591 192.601069 
L 553.175693 192.339799 
L 553.433437 191.492565 
L 554.022564 188.462596 
L 554.501231 186.566817 
L 554.758974 186.26287 
L 554.906256 186.356985 
L 555.127179 186.843926 
L 555.495384 188.359481 
L 556.305434 191.865753 
L 556.563178 192.207185 
L 556.71046 192.153959 
L 556.931383 191.748418 
L 557.262767 190.555324 
L 558.183279 186.945717 
L 558.404202 186.728992 
L 558.588304 186.837225 
L 558.809227 187.29227 
L 559.214252 188.792498 
L 559.950662 191.528882 
L 560.208406 191.847342 
L 560.392508 191.783737 
L 560.613431 191.401274 
L 560.981636 190.199559 
L 561.791686 187.410125 
L 562.04943 187.139309 
L 562.233532 187.215985 
L 562.454455 187.589832 
L 562.82266 188.725993 
L 563.63271 191.303022 
L 563.890454 191.540319 
L 564.074556 191.459388 
L 564.3323 191.019421 
L 564.774145 189.66396 
L 565.436914 187.750641 
L 565.694658 187.499107 
L 565.87876 187.550746 
L 566.136503 187.930131 
L 566.541529 189.046279 
L 567.277938 191.044117 
L 567.535682 191.265325 
L 567.756605 191.176757 
L 568.014348 190.773424 
L 568.493014 189.482596 
L 569.082142 188.044879 
L 569.376706 187.806498 
L 569.597629 187.903926 
L 569.892193 188.368206 
L 570.48132 189.900145 
L 570.959987 190.867928 
L 571.21773 191.030235 
L 571.438653 190.931796 
L 571.733217 190.494631 
L 572.395985 188.910209 
L 572.837831 188.175092 
L 573.095575 188.080083 
L 573.353318 188.258036 
L 573.684702 188.818674 
L 574.715676 190.767011 
L 574.973419 190.809665 
L 575.231163 190.603892 
L 575.636188 189.900638 
L 576.446239 188.437936 
L 576.740802 188.312866 
L 576.998546 188.452453 
L 577.366751 188.984243 
L 578.360904 190.589033 
L 578.655468 190.625691 
L 578.950031 190.390804 
L 579.428698 189.619712 
L 580.091466 188.632522 
L 580.38603 188.514786 
L 580.680594 188.653717 
L 581.048799 189.120817 
L 582.006132 190.436369 
L 582.300695 190.478374 
L 582.595259 190.289358 
L 583.073926 189.644532 
L 583.736694 188.798646 
L 584.068079 188.691025 
L 584.362642 188.824809 
L 584.804488 189.333903 
L 585.614539 190.286295 
L 585.945923 190.35064 
L 586.277308 190.168473 
L 586.792794 189.565985 
L 587.418743 188.91762 
L 587.750127 188.843213 
L 588.081511 188.996702 
L 588.596998 189.542379 
L 589.259767 190.177474 
L 589.627972 190.23403 
L 589.996176 190.03839 
L 591.432175 188.973983 
L 591.80038 189.141119 
L 592.499969 189.797583 
L 593.015456 190.125268 
L 593.383661 190.114509 
L 593.825507 189.844052 
L 594.85648 189.094337 
L 595.261505 189.125082 
L 595.740172 189.425933 
L 596.660684 190.043134 
L 597.065709 190.030655 
L 597.544375 189.76826 
L 598.501708 189.187274 
L 598.943554 189.217788 
L 599.495861 189.528626 
L 600.305912 189.973783 
L 600.747757 189.960114 
L 601.300065 189.687214 
L 602.146936 189.265747 
L 602.625602 189.295495 
L 603.25155 189.604548 
L 603.98796 189.922052 
L 604.466626 189.891354 
L 605.129395 189.589131 
L 605.865805 189.321856 
L 606.381291 189.38177 
L 608.111854 189.851942 
L 608.885084 189.556557 
L 609.584673 189.373157 
L 610.173801 189.466088 
L 611.6098 189.837678 
L 612.272569 189.669546 
L 613.266722 189.41946 
L 613.92949 189.524397 
L 615.218207 189.806392 
L 615.954617 189.657915 
L 616.98559 189.458751 
L 617.722 189.579692 
L 618.863435 189.777702 
L 619.673486 189.640403 
L 620.704459 189.493018 
L 621.588151 189.637319 
L 622.582304 189.75112 
L 623.613277 189.585801 
L 624.53379 189.529593 
L 627.000762 189.639549 
L 628.179017 189.549467 
L 630.830092 189.617456 
L 632.008348 189.578251 
L 634.180756 189.655485 
L 635.764037 189.597375 
L 637.825984 189.65419 
L 639.556547 189.615105 
L 641.508032 189.650334 
L 643.349056 189.628585 
L 645.263721 189.643294 
L 647.215207 189.642013 
L 649.166693 189.632073 
L 651.22864 189.655157 
L 654.100637 189.628434 
L 658.960941 189.655404 
L 697.180603 189.641365 
L 737.719955 189.642413 
L 737.719955 189.642413 
" clip-path="url(#p4f08651c3c)" style="fill: none; stroke: #0000ff; stroke-width: 3; stroke-linecap: square"/>
   </g>
   <g id="patch_3">
    <path d="M 119.1745 315.345 
L 119.1745 38.865 
" style="fill: none; stroke: #000000; stroke-width: 0.8; stroke-linejoin: miter; stroke-linecap: square"/>
   </g>
   <g id="patch_4">
    <path d="M 767.1745 315.345 
L 767.1745 38.865 
" style="fill: none; stroke: #000000; stroke-width: 0.8; stroke-linejoin: miter; stroke-linecap: square"/>
   </g>
   <g id="patch_5">
    <path d="M 119.1745 315.345 
L 767.1745 315.345 
" style="fill: none; stroke: #000000; stroke-width: 0.8; stroke-linejoin: miter; stroke-linecap: square"/>
   </g>
   <g id="patch_6">
    <path d="M 119.1745 38.865 
L 767.1745 38.865 
" style="fill: none; stroke: #000000; stroke-width: 0.8; stroke-linejoin: miter; stroke-linecap: square"/>
   </g>
   <g id="text_17">
    <!-- Single Particle Signal Simulation (OFI) -->
    <g transform="translate(253.193875 23.865) scale(0.24 -0.24)">
     <defs>
      <path id="TimesNewRomanPSMT-53" d="M 2934 4334 
L 2934 2869 
L 2819 2869 
Q 2763 3291 2617 3541 
Q 2472 3791 2203 3937 
Q 1934 4084 1647 4084 
Q 1322 4084 1109 3886 
Q 897 3688 897 3434 
Q 897 3241 1031 3081 
Q 1225 2847 1953 2456 
Q 2547 2138 2764 1967 
Q 2981 1797 3098 1565 
Q 3216 1334 3216 1081 
Q 3216 600 2842 251 
Q 2469 -97 1881 -97 
Q 1697 -97 1534 -69 
Q 1438 -53 1133 45 
Q 828 144 747 144 
Q 669 144 623 97 
Q 578 50 556 -97 
L 441 -97 
L 441 1356 
L 556 1356 
Q 638 900 775 673 
Q 913 447 1195 297 
Q 1478 147 1816 147 
Q 2206 147 2432 353 
Q 2659 559 2659 841 
Q 2659 997 2573 1156 
Q 2488 1316 2306 1453 
Q 2184 1547 1640 1851 
Q 1097 2156 867 2337 
Q 638 2519 519 2737 
Q 400 2956 400 3219 
Q 400 3675 750 4004 
Q 1100 4334 1641 4334 
Q 1978 4334 2356 4169 
Q 2531 4091 2603 4091 
Q 2684 4091 2736 4139 
Q 2788 4188 2819 4334 
L 2934 4334 
z
" transform="scale(0.015625)"/>
      <path id="TimesNewRomanPSMT-6e" d="M 1034 2341 
Q 1538 2947 1994 2947 
Q 2228 2947 2397 2830 
Q 2566 2713 2666 2444 
Q 2734 2256 2734 1869 
L 2734 647 
Q 2734 375 2778 278 
Q 2813 200 2889 156 
Q 2966 113 3172 113 
L 3172 0 
L 1756 0 
L 1756 113 
L 1816 113 
Q 2016 113 2095 173 
Q 2175 234 2206 353 
Q 2219 400 2219 647 
L 2219 1819 
Q 2219 2209 2117 2386 
Q 2016 2563 1775 2563 
Q 1403 2563 1034 2156 
L 1034 647 
Q 1034 356 1069 288 
Q 1113 197 1189 155 
Q 1266 113 1500 113 
L 1500 0 
L 84 0 
L 84 113 
L 147 113 
Q 366 113 442 223 
Q 519 334 519 647 
L 519 1709 
Q 519 2225 495 2337 
Q 472 2450 423 2490 
Q 375 2531 294 2531 
Q 206 2531 84 2484 
L 38 2597 
L 900 2947 
L 1034 2947 
L 1034 2341 
z
" transform="scale(0.015625)"/>
      <path id="TimesNewRomanPSMT-67" d="M 966 1044 
Q 703 1172 562 1401 
Q 422 1631 422 1909 
Q 422 2334 742 2640 
Q 1063 2947 1563 2947 
Q 1972 2947 2272 2747 
L 2878 2747 
Q 3013 2747 3034 2739 
Q 3056 2731 3066 2713 
Q 3084 2684 3084 2613 
Q 3084 2531 3069 2500 
Q 3059 2484 3036 2475 
Q 3013 2466 2878 2466 
L 2506 2466 
Q 2681 2241 2681 1891 
Q 2681 1491 2375 1206 
Q 2069 922 1553 922 
Q 1341 922 1119 984 
Q 981 866 932 777 
Q 884 688 884 625 
Q 884 572 936 522 
Q 988 472 1138 450 
Q 1225 438 1575 428 
Q 2219 413 2409 384 
Q 2700 344 2873 169 
Q 3047 -6 3047 -263 
Q 3047 -616 2716 -925 
Q 2228 -1381 1444 -1381 
Q 841 -1381 425 -1109 
Q 191 -953 191 -784 
Q 191 -709 225 -634 
Q 278 -519 444 -313 
Q 466 -284 763 25 
Q 600 122 533 198 
Q 466 275 466 372 
Q 466 481 555 628 
Q 644 775 966 1044 
z
M 1509 2797 
Q 1278 2797 1122 2612 
Q 966 2428 966 2047 
Q 966 1553 1178 1281 
Q 1341 1075 1591 1075 
Q 1828 1075 1981 1253 
Q 2134 1431 2134 1813 
Q 2134 2309 1919 2591 
Q 1759 2797 1509 2797 
z
M 934 0 
Q 788 -159 713 -296 
Q 638 -434 638 -550 
Q 638 -700 819 -813 
Q 1131 -1006 1722 -1006 
Q 2284 -1006 2551 -807 
Q 2819 -609 2819 -384 
Q 2819 -222 2659 -153 
Q 2497 -84 2016 -72 
Q 1313 -53 934 0 
z
" transform="scale(0.015625)"/>
      <path id="TimesNewRomanPSMT-6c" d="M 1184 4444 
L 1184 647 
Q 1184 378 1223 290 
Q 1263 203 1344 158 
Q 1425 113 1647 113 
L 1647 0 
L 244 0 
L 244 113 
Q 441 113 512 153 
Q 584 194 625 287 
Q 666 381 666 647 
L 666 3247 
Q 666 3731 644 3842 
Q 622 3953 573 3993 
Q 525 4034 450 4034 
Q 369 4034 244 3984 
L 191 4094 
L 1044 4444 
L 1184 4444 
z
" transform="scale(0.015625)"/>
      <path id="TimesNewRomanPSMT-61" d="M 1822 413 
Q 1381 72 1269 19 
Q 1100 -59 909 -59 
Q 613 -59 420 144 
Q 228 347 228 678 
Q 228 888 322 1041 
Q 450 1253 767 1440 
Q 1084 1628 1822 1897 
L 1822 2009 
Q 1822 2438 1686 2597 
Q 1550 2756 1291 2756 
Q 1094 2756 978 2650 
Q 859 2544 859 2406 
L 866 2225 
Q 866 2081 792 2003 
Q 719 1925 600 1925 
Q 484 1925 411 2006 
Q 338 2088 338 2228 
Q 338 2497 613 2722 
Q 888 2947 1384 2947 
Q 1766 2947 2009 2819 
Q 2194 2722 2281 2516 
Q 2338 2381 2338 1966 
L 2338 994 
Q 2338 584 2353 492 
Q 2369 400 2405 369 
Q 2441 338 2488 338 
Q 2538 338 2575 359 
Q 2641 400 2828 588 
L 2828 413 
Q 2478 -56 2159 -56 
Q 2006 -56 1915 50 
Q 1825 156 1822 413 
z
M 1822 616 
L 1822 1706 
Q 1350 1519 1213 1441 
Q 966 1303 859 1153 
Q 753 1003 753 825 
Q 753 600 887 451 
Q 1022 303 1197 303 
Q 1434 303 1822 616 
z
" transform="scale(0.015625)"/>
      <path id="TimesNewRomanPSMT-74" d="M 1031 3803 
L 1031 2863 
L 1700 2863 
L 1700 2644 
L 1031 2644 
L 1031 788 
Q 1031 509 1111 412 
Q 1191 316 1316 316 
Q 1419 316 1516 380 
Q 1613 444 1666 569 
L 1788 569 
Q 1678 263 1478 108 
Q 1278 -47 1066 -47 
Q 922 -47 784 33 
Q 647 113 581 261 
Q 516 409 516 719 
L 516 2644 
L 63 2644 
L 63 2747 
Q 234 2816 414 2980 
Q 594 3144 734 3369 
Q 806 3488 934 3803 
L 1031 3803 
z
" transform="scale(0.015625)"/>
      <path id="TimesNewRomanPSMT-63" d="M 2631 1088 
Q 2516 522 2178 217 
Q 1841 -88 1431 -88 
Q 944 -88 581 321 
Q 219 731 219 1428 
Q 219 2103 620 2525 
Q 1022 2947 1584 2947 
Q 2006 2947 2278 2723 
Q 2550 2500 2550 2259 
Q 2550 2141 2473 2067 
Q 2397 1994 2259 1994 
Q 2075 1994 1981 2113 
Q 1928 2178 1911 2362 
Q 1894 2547 1784 2644 
Q 1675 2738 1481 2738 
Q 1169 2738 978 2506 
Q 725 2200 725 1697 
Q 725 1184 976 792 
Q 1228 400 1656 400 
Q 1963 400 2206 609 
Q 2378 753 2541 1131 
L 2631 1088 
z
" transform="scale(0.015625)"/>
      <path id="TimesNewRomanPSMT-75" d="M 2709 2863 
L 2709 1128 
Q 2709 631 2732 520 
Q 2756 409 2807 365 
Q 2859 322 2928 322 
Q 3025 322 3147 375 
L 3191 266 
L 2334 -88 
L 2194 -88 
L 2194 519 
Q 1825 119 1631 15 
Q 1438 -88 1222 -88 
Q 981 -88 804 51 
Q 628 191 559 409 
Q 491 628 491 1028 
L 491 2306 
Q 491 2509 447 2587 
Q 403 2666 317 2708 
Q 231 2750 6 2747 
L 6 2863 
L 1009 2863 
L 1009 947 
Q 1009 547 1148 422 
Q 1288 297 1484 297 
Q 1619 297 1789 381 
Q 1959 466 2194 703 
L 2194 2325 
Q 2194 2569 2105 2655 
Q 2016 2741 1734 2747 
L 1734 2863 
L 2709 2863 
z
" transform="scale(0.015625)"/>
      <path id="TimesNewRomanPSMT-4f" d="M 2341 4334 
Q 3166 4334 3770 3707 
Q 4375 3081 4375 2144 
Q 4375 1178 3765 540 
Q 3156 -97 2291 -97 
Q 1416 -97 820 525 
Q 225 1147 225 2134 
Q 225 3144 913 3781 
Q 1509 4334 2341 4334 
z
M 2281 4106 
Q 1713 4106 1369 3684 
Q 941 3159 941 2147 
Q 941 1109 1384 550 
Q 1725 125 2284 125 
Q 2881 125 3270 590 
Q 3659 1056 3659 2059 
Q 3659 3147 3231 3681 
Q 2888 4106 2281 4106 
z
" transform="scale(0.015625)"/>
      <path id="TimesNewRomanPSMT-46" d="M 1309 4006 
L 1309 2341 
L 2081 2341 
Q 2347 2341 2470 2458 
Q 2594 2575 2634 2922 
L 2750 2922 
L 2750 1488 
L 2634 1488 
Q 2631 1734 2570 1850 
Q 2509 1966 2401 2023 
Q 2294 2081 2081 2081 
L 1309 2081 
L 1309 750 
Q 1309 428 1350 325 
Q 1381 247 1481 191 
Q 1619 116 1769 116 
L 1922 116 
L 1922 0 
L 103 0 
L 103 116 
L 253 116 
Q 516 116 634 269 
Q 709 369 709 750 
L 709 3488 
Q 709 3809 669 3913 
Q 638 3991 541 4047 
Q 406 4122 253 4122 
L 103 4122 
L 103 4238 
L 3256 4238 
L 3297 3306 
L 3188 3306 
Q 3106 3603 2998 3742 
Q 2891 3881 2733 3943 
Q 2575 4006 2244 4006 
L 1309 4006 
z
" transform="scale(0.015625)"/>
      <path id="TimesNewRomanPSMT-49" d="M 1975 116 
L 1975 0 
L 159 0 
L 159 116 
L 309 116 
Q 572 116 691 269 
Q 766 369 766 750 
L 766 3488 
Q 766 3809 725 3913 
Q 694 3991 597 4047 
Q 459 4122 309 4122 
L 159 4122 
L 159 4238 
L 1975 4238 
L 1975 4122 
L 1822 4122 
Q 1563 4122 1444 3969 
Q 1366 3869 1366 3488 
L 1366 750 
Q 1366 428 1406 325 
Q 1438 247 1538 191 
Q 1672 116 1822 116 
L 1975 116 
z
" transform="scale(0.015625)"/>
     </defs>
     <use xlink:href="#TimesNewRomanPSMT-53"/>
     <use xlink:href="#TimesNewRomanPSMT-69" x="55.615234"/>
     <use xlink:href="#TimesNewRomanPSMT-6e" x="83.398438"/>
     <use xlink:href="#TimesNewRomanPSMT-67" x="133.398438"/>
     <use xlink:href="#TimesNewRomanPSMT-6c" x="183.398438"/>
     <use xlink:href="#TimesNewRomanPSMT-65" x="211.181641"/>
     <use xlink:href="#TimesNewRomanPSMT-20" x="255.566406"/>
     <use xlink:href="#TimesNewRomanPSMT-50" x="280.566406"/>
     <use xlink:href="#TimesNewRomanPSMT-61" x="336.181641"/>
     <use xlink:href="#TimesNewRomanPSMT-72" x="380.566406"/>
     <use xlink:href="#TimesNewRomanPSMT-74" x="413.867188"/>
     <use xlink:href="#TimesNewRomanPSMT-69" x="441.650391"/>
     <use xlink:href="#TimesNewRomanPSMT-63" x="469.433594"/>
     <use xlink:href="#TimesNewRomanPSMT-6c" x="513.818359"/>
     <use xlink:href="#TimesNewRomanPSMT-65" x="541.601562"/>
     <use xlink:href="#TimesNewRomanPSMT-20" x="585.986328"/>
     <use xlink:href="#TimesNewRomanPSMT-53" x="610.986328"/>
     <use xlink:href="#TimesNewRomanPSMT-69" x="666.601562"/>
     <use xlink:href="#TimesNewRomanPSMT-67" x="694.384766"/>
     <use xlink:href="#TimesNewRomanPSMT-6e" x="744.384766"/>
     <use xlink:href="#TimesNewRomanPSMT-61" x="794.384766"/>
     <use xlink:href="#TimesNewRomanPSMT-6c" x="838.769531"/>
     <use xlink:href="#TimesNewRomanPSMT-20" x="866.552734"/>
     <use xlink:href="#TimesNewRomanPSMT-53" x="891.552734"/>
     <use xlink:href="#TimesNewRomanPSMT-69" x="947.167969"/>
     <use xlink:href="#TimesNewRomanPSMT-6d" x="974.951172"/>
     <use xlink:href="#TimesNewRomanPSMT-75" x="1052.734375"/>
     <use xlink:href="#TimesNewRomanPSMT-6c" x="1102.734375"/>
     <use xlink:href="#TimesNewRomanPSMT-61" x="1130.517578"/>
     <use xlink:href="#TimesNewRomanPSMT-74" x="1174.902344"/>
     <use xlink:href="#TimesNewRomanPSMT-69" x="1202.685547"/>
     <use xlink:href="#TimesNewRomanPSMT-6f" x="1230.46875"/>
     <use xlink:href="#TimesNewRomanPSMT-6e" x="1280.46875"/>
     <use xlink:href="#TimesNewRomanPSMT-20" x="1330.46875"/>
     <use xlink:href="#TimesNewRomanPSMT-28" x="1355.46875"/>
     <use xlink:href="#TimesNewRomanPSMT-4f" x="1388.769531"/>
     <use xlink:href="#TimesNewRomanPSMT-46" x="1460.986328"/>
     <use xlink:href="#TimesNewRomanPSMT-49" x="1516.601562"/>
     <use xlink:href="#TimesNewRomanPSMT-29" x="1549.902344"/>
    </g>
   </g>
   <g id="legend_1">
    <g id="patch_7">
     <path d="M 664.5745 82.065 
L 754.5745 82.065 
Q 758.1745 82.065 758.1745 78.465 
L 758.1745 51.465 
Q 758.1745 47.865 754.5745 47.865 
L 664.5745 47.865 
Q 660.9745 47.865 660.9745 51.465 
L 660.9745 78.465 
Q 660.9745 82.065 664.5745 82.065 
z
" style="fill: #ffffff; opacity: 0.8; stroke: #cccccc; stroke-linejoin: miter"/>
    </g>
    <g id="line2d_30">
     <path d="M 668.1745 61.365 
L 686.1745 61.365 
L 704.1745 61.365 
" style="fill: none; stroke: #0000ff; stroke-width: 3; stroke-linecap: square"/>
    </g>
    <g id="text_18">
     <!-- $P_f(t)$ -->
     <g transform="translate(718.5745 67.665) scale(0.18 -0.18)">
      <defs>
       <path id="TimesNewRomanPS-ItalicMT-50" d="M 1000 4238 
L 2669 4238 
Q 3325 4238 3650 3955 
Q 3975 3672 3975 3266 
Q 3975 2944 3769 2641 
Q 3563 2338 3156 2148 
Q 2750 1959 2278 1959 
Q 1984 1959 1531 2066 
L 1194 909 
Q 1075 497 1075 366 
Q 1075 266 1159 200 
Q 1244 134 1563 116 
L 1531 0 
L -153 0 
L -119 116 
Q 213 116 342 230 
Q 472 344 622 859 
L 1322 3272 
Q 1447 3706 1447 3853 
Q 1447 3963 1358 4034 
Q 1269 4106 966 4122 
L 1000 4238 
z
M 1584 2263 
Q 1938 2172 2153 2172 
Q 2494 2172 2773 2312 
Q 3053 2453 3211 2734 
Q 3369 3016 3369 3319 
Q 3369 3634 3175 3818 
Q 2981 4003 2588 4003 
Q 2375 4003 2072 3950 
L 1584 2263 
z
" transform="scale(0.015625)"/>
       <path id="TimesNewRomanPS-ItalicMT-66" d="M 1897 2753 
L 1841 2547 
L 1384 2547 
L 1041 1181 
Q 813 278 581 -216 
Q 253 -913 -125 -1178 
Q -413 -1381 -700 -1381 
Q -888 -1381 -1019 -1269 
Q -1116 -1191 -1116 -1066 
Q -1116 -966 -1036 -892 
Q -956 -819 -841 -819 
Q -756 -819 -698 -872 
Q -641 -925 -641 -994 
Q -641 -1063 -706 -1122 
Q -756 -1166 -756 -1188 
Q -756 -1216 -734 -1231 
Q -706 -1253 -647 -1253 
Q -513 -1253 -364 -1168 
Q -216 -1084 -100 -917 
Q 16 -750 119 -434 
Q 163 -303 353 431 
L 897 2547 
L 353 2547 
L 397 2753 
Q 656 2753 759 2789 
Q 863 2825 948 2926 
Q 1034 3028 1172 3306 
Q 1356 3681 1525 3888 
Q 1756 4166 2011 4305 
Q 2266 4444 2491 4444 
Q 2728 4444 2872 4323 
Q 3016 4203 3016 4063 
Q 3016 3953 2944 3878 
Q 2872 3803 2759 3803 
Q 2663 3803 2602 3859 
Q 2541 3916 2541 3994 
Q 2541 4044 2581 4117 
Q 2622 4191 2622 4216 
Q 2622 4259 2594 4281 
Q 2553 4313 2475 4313 
Q 2278 4313 2122 4188 
Q 1913 4022 1747 3669 
Q 1663 3484 1438 2753 
L 1897 2753 
z
" transform="scale(0.015625)"/>
       <path id="TimesNewRomanPS-ItalicMT-74" d="M 1663 3603 
L 1419 2753 
L 1909 2753 
L 1856 2556 
L 1369 2556 
L 831 713 
Q 744 416 744 328 
Q 744 275 769 247 
Q 794 219 828 219 
Q 906 219 1034 328 
Q 1109 391 1369 713 
L 1472 634 
Q 1184 216 928 44 
Q 753 -75 575 -75 
Q 438 -75 350 11 
Q 263 97 263 231 
Q 263 400 363 747 
L 884 2556 
L 413 2556 
L 444 2678 
Q 788 2772 1016 2958 
Q 1244 3144 1525 3603 
L 1663 3603 
z
" transform="scale(0.015625)"/>
      </defs>
      <use xlink:href="#TimesNewRomanPS-ItalicMT-50" transform="translate(0 0.5625)"/>
      <use xlink:href="#TimesNewRomanPS-ItalicMT-66" transform="translate(61.083984 -24.215625) scale(0.7)"/>
      <use xlink:href="#TimesNewRomanPSMT-28" transform="translate(84.661914 0.5625)"/>
      <use xlink:href="#TimesNewRomanPS-ItalicMT-74" transform="translate(117.962695 0.5625)"/>
      <use xlink:href="#TimesNewRomanPSMT-29" transform="translate(145.745898 0.5625)"/>
     </g>
    </g>
   </g>
  </g>
  <g id="axes_2">
   <g id="patch_8">
    <path d="M 119.1745 397.425 
L 680.7745 397.425 
L 680.7745 388.785 
L 119.1745 388.785 
z
" clip-path="url(#p3cfdce061c)" style="fill: #d3d3d3"/>
   </g>
   <g id="patch_9">
    <path d="M 119.1745 397.425 
L 287.6545 397.425 
L 287.6545 388.785 
L 119.1745 388.785 
z
" clip-path="url(#p3cfdce061c)" style="fill: #1f77b4"/>
   </g>
   <g id="line2d_31">
    <path d="M 287.6545 401.745 
L 287.6545 384.465 
" clip-path="url(#pf88856d6be)" style="fill: none; stroke: #ff0000; stroke-linecap: square"/>
   </g>
   <g id="line2d_32">
    <defs>
     <path id="m571091fd41" d="M 0 5 
C 1.326016 5 2.597899 4.473168 3.535534 3.535534 
C 4.473168 2.597899 5 1.326016 5 0 
C 5 -1.326016 4.473168 -2.597899 3.535534 -3.535534 
C 2.597899 -4.473168 1.326016 -5 0 -5 
C -1.326016 -5 -2.597899 -4.473168 -3.535534 -3.535534 
C -4.473168 -2.597899 -5 -1.326016 -5 0 
C -5 1.326016 -4.473168 2.597899 -3.535534 3.535534 
C -2.597899 4.473168 -1.326016 5 0 5 
z
" style="stroke: #bfbfbf"/>
    </defs>
    <g>
     <use xlink:href="#m571091fd41" x="287.6545" y="393.105" style="fill: #ffffff; stroke: #bfbfbf"/>
    </g>
   </g>
   <g id="text_19">
    <!-- Speed (m/s) -->
    <g transform="translate(31.0675 396.94875) scale(0.16 -0.16)">
     <defs>
      <path id="TimesNewRomanPSMT-70" d="M -6 2578 
L 875 2934 
L 994 2934 
L 994 2266 
Q 1216 2644 1439 2795 
Q 1663 2947 1909 2947 
Q 2341 2947 2628 2609 
Q 2981 2197 2981 1534 
Q 2981 794 2556 309 
Q 2206 -88 1675 -88 
Q 1444 -88 1275 -22 
Q 1150 25 994 166 
L 994 -706 
Q 994 -1000 1030 -1079 
Q 1066 -1159 1155 -1206 
Q 1244 -1253 1478 -1253 
L 1478 -1369 
L -22 -1369 
L -22 -1253 
L 56 -1253 
Q 228 -1256 350 -1188 
Q 409 -1153 442 -1076 
Q 475 -1000 475 -688 
L 475 2019 
Q 475 2297 450 2372 
Q 425 2447 370 2484 
Q 316 2522 222 2522 
Q 147 2522 31 2478 
L -6 2578 
z
M 994 2081 
L 994 1013 
Q 994 666 1022 556 
Q 1066 375 1236 237 
Q 1406 100 1666 100 
Q 1978 100 2172 344 
Q 2425 663 2425 1241 
Q 2425 1897 2138 2250 
Q 1938 2494 1663 2494 
Q 1513 2494 1366 2419 
Q 1253 2363 994 2081 
z
" transform="scale(0.015625)"/>
      <path id="TimesNewRomanPSMT-64" d="M 2222 322 
Q 2013 103 1813 7 
Q 1613 -88 1381 -88 
Q 913 -88 563 304 
Q 213 697 213 1313 
Q 213 1928 600 2439 
Q 988 2950 1597 2950 
Q 1975 2950 2222 2709 
L 2222 3238 
Q 2222 3728 2198 3840 
Q 2175 3953 2125 3993 
Q 2075 4034 2000 4034 
Q 1919 4034 1784 3984 
L 1744 4094 
L 2597 4444 
L 2738 4444 
L 2738 1134 
Q 2738 631 2761 520 
Q 2784 409 2836 365 
Q 2888 322 2956 322 
Q 3041 322 3181 375 
L 3216 266 
L 2366 -88 
L 2222 -88 
L 2222 322 
z
M 2222 541 
L 2222 2016 
Q 2203 2228 2109 2403 
Q 2016 2578 1861 2667 
Q 1706 2756 1559 2756 
Q 1284 2756 1069 2509 
Q 784 2184 784 1559 
Q 784 928 1059 592 
Q 1334 256 1672 256 
Q 1956 256 2222 541 
z
" transform="scale(0.015625)"/>
      <path id="TimesNewRomanPSMT-2f" d="M 1794 4444 
L 259 -88 
L 9 -88 
L 1544 4444 
L 1794 4444 
z
" transform="scale(0.015625)"/>
     </defs>
     <use xlink:href="#TimesNewRomanPSMT-53"/>
     <use xlink:href="#TimesNewRomanPSMT-70" x="55.615234"/>
     <use xlink:href="#TimesNewRomanPSMT-65" x="105.615234"/>
     <use xlink:href="#TimesNewRomanPSMT-65" x="150"/>
     <use xlink:href="#TimesNewRomanPSMT-64" x="194.384766"/>
     <use xlink:href="#TimesNewRomanPSMT-20" x="244.384766"/>
     <use xlink:href="#TimesNewRomanPSMT-28" x="269.384766"/>
     <use xlink:href="#TimesNewRomanPSMT-6d" x="302.685547"/>
     <use xlink:href="#TimesNewRomanPSMT-2f" x="380.46875"/>
     <use xlink:href="#TimesNewRomanPSMT-73" x="408.251953"/>
     <use xlink:href="#TimesNewRomanPSMT-29" x="447.167969"/>
    </g>
   </g>
   <g id="text_20">
    <!-- $\mathdefault{0.016}$ -->
    <g transform="translate(692.0065 396.468281) scale(0.14 -0.14)">
     <use xlink:href="#TimesNewRomanPSMT-30" transform="translate(0 0.421875)"/>
     <use xlink:href="#TimesNewRomanPSMT-2e" transform="translate(50 0.421875)"/>
     <use xlink:href="#TimesNewRomanPSMT-30" transform="translate(75 0.421875)"/>
     <use xlink:href="#TimesNewRomanPSMT-31" transform="translate(125 0.421875)"/>
     <use xlink:href="#TimesNewRomanPSMT-36" transform="translate(175 0.421875)"/>
    </g>
   </g>
  </g>
  <g id="axes_3">
   <g id="patch_10">
    <path d="M 119.1745 426.225 
L 680.7745 426.225 
L 680.7745 417.585 
L 119.1745 417.585 
z
" clip-path="url(#p61e35b5700)" style="fill: #d3d3d3"/>
   </g>
   <g id="patch_11">
    <path d="M 119.1745 426.225 
L 148.732395 426.225 
L 148.732395 417.585 
L 119.1745 417.585 
z
" clip-path="url(#p61e35b5700)" style="fill: #1f77b4"/>
   </g>
   <g id="line2d_33">
    <path d="M 148.732395 430.545 
L 148.732395 413.265 
" clip-path="url(#p7cfc3e68a4)" style="fill: none; stroke: #ff0000; stroke-linecap: square"/>
   </g>
   <g id="line2d_34">
    <g>
     <use xlink:href="#m571091fd41" x="148.732395" y="421.905" style="fill: #ffffff; stroke: #bfbfbf"/>
    </g>
   </g>
   <g id="text_21">
    <!-- D Particle (µm) -->
    <g transform="translate(7.2 425.73375) scale(0.16 -0.16)">
     <defs>
      <path id="TimesNewRomanPSMT-44" d="M 109 0 
L 109 116 
L 269 116 
Q 538 116 650 288 
Q 719 391 719 750 
L 719 3488 
Q 719 3884 631 3984 
Q 509 4122 269 4122 
L 109 4122 
L 109 4238 
L 1834 4238 
Q 2784 4238 3279 4022 
Q 3775 3806 4076 3303 
Q 4378 2800 4378 2141 
Q 4378 1256 3841 663 
Q 3238 0 2003 0 
L 109 0 
z
M 1319 306 
Q 1716 219 1984 219 
Q 2709 219 3187 728 
Q 3666 1238 3666 2109 
Q 3666 2988 3187 3494 
Q 2709 4000 1959 4000 
Q 1678 4000 1319 3909 
L 1319 306 
z
" transform="scale(0.015625)"/>
      <path id="TimesNewRomanPSMT-b5" d="M 613 2863 
L 1125 2863 
L 1125 1197 
Q 1125 744 1181 578 
Q 1222 453 1331 375 
Q 1441 297 1569 297 
Q 1938 297 2306 716 
L 2306 2863 
L 2822 2863 
L 2822 819 
Q 2822 506 2847 409 
Q 2869 334 2922 292 
Q 2975 250 3034 250 
Q 3116 250 3172 319 
Q 3253 416 3288 638 
L 3419 638 
Q 3391 259 3222 85 
Q 3053 -88 2800 -88 
Q 2556 -88 2425 94 
Q 2331 228 2306 506 
Q 2034 188 1800 50 
Q 1566 -88 1325 -88 
Q 1159 -88 1038 -22 
Q 950 28 841 178 
Q 838 81 838 34 
Q 838 -213 944 -713 
Q 984 -903 984 -1038 
Q 984 -1188 896 -1284 
Q 809 -1381 691 -1381 
Q 575 -1381 497 -1290 
Q 419 -1200 419 -1041 
Q 419 -897 509 -525 
Q 572 -275 578 -200 
Q 616 122 616 359 
Q 616 375 613 594 
L 613 2863 
z
" transform="scale(0.015625)"/>
     </defs>
     <use xlink:href="#TimesNewRomanPSMT-44"/>
     <use xlink:href="#TimesNewRomanPSMT-20" x="72.216797"/>
     <use xlink:href="#TimesNewRomanPSMT-50" x="97.216797"/>
     <use xlink:href="#TimesNewRomanPSMT-61" x="152.832031"/>
     <use xlink:href="#TimesNewRomanPSMT-72" x="197.216797"/>
     <use xlink:href="#TimesNewRomanPSMT-74" x="230.517578"/>
     <use xlink:href="#TimesNewRomanPSMT-69" x="258.300781"/>
     <use xlink:href="#TimesNewRomanPSMT-63" x="286.083984"/>
     <use xlink:href="#TimesNewRomanPSMT-6c" x="330.46875"/>
     <use xlink:href="#TimesNewRomanPSMT-65" x="358.251953"/>
     <use xlink:href="#TimesNewRomanPSMT-20" x="402.636719"/>
     <use xlink:href="#TimesNewRomanPSMT-28" x="427.636719"/>
     <use xlink:href="#TimesNewRomanPSMT-b5" x="460.9375"/>
     <use xlink:href="#TimesNewRomanPSMT-6d" x="518.554688"/>
     <use xlink:href="#TimesNewRomanPSMT-29" x="596.337891"/>
    </g>
   </g>
   <g id="text_22">
    <!-- $\mathdefault{2}$ -->
    <g transform="translate(692.0065 425.268281) scale(0.14 -0.14)">
     <use xlink:href="#TimesNewRomanPSMT-32" transform="translate(0 0.421875)"/>
    </g>
   </g>
  </g>
  <g id="axes_4">
   <g id="patch_12">
    <path d="M 119.1745 455.025 
L 680.7745 455.025 
L 680.7745 446.385 
L 119.1745 446.385 
z
" clip-path="url(#pc963033d45)" style="fill: #d3d3d3"/>
   </g>
   <g id="patch_13">
    <path d="M 119.1745 455.025 
L 306.3745 455.025 
L 306.3745 446.385 
L 119.1745 446.385 
z
" clip-path="url(#pc963033d45)" style="fill: #1f77b4"/>
   </g>
   <g id="line2d_35">
    <path d="M 306.3745 459.345 
L 306.3745 442.065 
" clip-path="url(#p3172418aa0)" style="fill: none; stroke: #ff0000; stroke-linecap: square"/>
   </g>
   <g id="line2d_36">
    <g>
     <use xlink:href="#m571091fd41" x="306.3745" y="450.705" style="fill: #ffffff; stroke: #bfbfbf"/>
    </g>
   </g>
   <g id="text_23">
    <!-- m0 -->
    <g transform="translate(87.4975 454.54875) scale(0.16 -0.16)">
     <use xlink:href="#TimesNewRomanPSMT-6d"/>
     <use xlink:href="#TimesNewRomanPSMT-30" x="77.783203"/>
    </g>
   </g>
   <g id="text_24">
    <!-- $\mathdefault{10}$ -->
    <g transform="translate(692.0065 454.068281) scale(0.14 -0.14)">
     <use xlink:href="#TimesNewRomanPSMT-31" transform="translate(0 0.421875)"/>
     <use xlink:href="#TimesNewRomanPSMT-30" transform="translate(50 0.421875)"/>
    </g>
   </g>
  </g>
 </g>
 <defs>
  <clipPath id="p4f08651c3c">
   <rect x="119.1745" y="38.865" width="648" height="276.48"/>
  </clipPath>
  <clipPath id="p3cfdce061c">
   <rect x="119.1745" y="384.465" width="561.6" height="17.28"/>
  </clipPath>
  <clipPath id="pf88856d6be">
   <path d="M 119.1745 397.425 
L 680.7745 397.425 
L 680.7745 388.785 
L 119.1745 388.785 
z
"/>
  </clipPath>
  <clipPath id="p61e35b5700">
   <rect x="119.1745" y="413.265" width="561.6" height="17.28"/>
  </clipPath>
  <clipPath id="p7cfc3e68a4">
   <path d="M 119.1745 426.225 
L 680.7745 426.225 
L 680.7745 417.585 
L 119.1745 417.585 
z
"/>
  </clipPath>
  <clipPath id="pc963033d45">
   <rect x="119.1745" y="442.065" width="561.6" height="17.28"/>
  </clipPath>
  <clipPath id="p3172418aa0">
   <path d="M 119.1745 455.025 
L 680.7745 455.025 
L 680.7745 446.385 
L 119.1745 446.385 
z
"/>
  </clipPath>
 </defs>
</svg>
